<svg xmlns="http://www.w3.org/2000/svg" xmlns:xlink="http://www.w3.org/1999/xlink" width="40" zoomAndPan="magnify" viewBox="0 0 30 30.000001" height="40" preserveAspectRatio="xMidYMid meet" version="1.2"><defs><clipPath id="7158aa19c7"><path d="M 15.808594 15.082031 L 17.1875 15.082031 L 17.1875 16.53125 L 15.808594 16.53125 Z M 15.808594 15.082031 "/></clipPath><clipPath id="470f4b3f42"><path d="M 13.609375 14.648438 L 14.675781 14.648438 L 14.675781 15.816406 L 13.609375 15.816406 Z M 13.609375 14.648438 "/></clipPath></defs><g id="18e67e6df0"><path style=" stroke:none;fill-rule:nonzero;fill:#ffffff;fill-opacity:1;" d="M 22.855469 6.621094 C 22.753906 6.320312 22.542969 6.082031 22.335938 5.820312 C 22.398438 6.167969 22.621094 6.398438 22.855469 6.621094 M 23.773438 5.097656 C 23.78125 5.09375 23.785156 5.085938 23.789062 5.082031 C 23.746094 5.058594 23.703125 5.03125 23.65625 5.007812 C 23.585938 4.972656 23.511719 4.945312 23.441406 4.914062 C 23.347656 4.871094 23.253906 4.824219 23.160156 4.785156 C 23.082031 4.753906 22.996094 4.726562 22.917969 4.699219 C 22.804688 4.660156 22.703125 4.574219 22.574219 4.667969 C 22.492188 4.726562 22.390625 4.761719 22.300781 4.808594 C 22.367188 4.828125 22.433594 4.828125 22.496094 4.835938 C 22.570312 4.84375 22.640625 4.867188 22.714844 4.878906 C 22.828125 4.898438 22.941406 4.910156 23.054688 4.925781 C 23.125 4.9375 23.199219 4.945312 23.269531 4.964844 C 23.363281 4.988281 23.453125 5.019531 23.542969 5.042969 C 23.621094 5.0625 23.699219 5.078125 23.773438 5.097656 M 21.136719 9.066406 C 21.144531 9.070312 21.152344 9.074219 21.164062 9.074219 C 21.210938 8.984375 21.261719 8.894531 21.308594 8.800781 C 21.355469 8.710938 21.402344 8.621094 21.441406 8.527344 C 21.484375 8.429688 21.523438 8.332031 21.5625 8.234375 C 21.59375 8.144531 21.625 8.054688 21.660156 7.96875 C 21.683594 7.902344 21.714844 7.84375 21.742188 7.777344 C 21.761719 7.71875 21.777344 7.664062 21.792969 7.605469 C 21.8125 7.550781 21.828125 7.5 21.84375 7.445312 C 21.792969 7.503906 21.757812 7.5625 21.71875 7.621094 C 21.644531 7.75 21.574219 7.878906 21.488281 8 C 21.40625 8.117188 21.3125 8.226562 21.226562 8.339844 C 21.191406 8.390625 21.144531 8.445312 21.140625 8.503906 C 21.128906 8.691406 21.136719 8.878906 21.136719 9.066406 M 17.394531 0.347656 C 17.398438 0.355469 17.402344 0.375 17.410156 0.378906 C 17.515625 0.398438 17.621094 0.410156 17.722656 0.4375 C 17.796875 0.453125 17.863281 0.484375 17.9375 0.511719 C 17.992188 0.527344 18.046875 0.546875 18.097656 0.566406 C 18.234375 0.609375 18.363281 0.652344 18.480469 0.730469 C 18.59375 0.800781 18.722656 0.84375 18.832031 0.914062 C 18.96875 1.003906 19.097656 1.105469 19.226562 1.207031 C 19.34375 1.300781 19.457031 1.398438 19.566406 1.503906 C 19.660156 1.59375 19.753906 1.683594 19.832031 1.78125 C 19.945312 1.921875 20.050781 2.066406 20.152344 2.21875 C 20.226562 2.328125 20.269531 2.453125 20.34375 2.566406 C 20.421875 2.6875 20.464844 2.820312 20.519531 2.953125 C 20.574219 3.082031 20.628906 3.214844 20.65625 3.355469 C 20.671875 3.453125 20.710938 3.546875 20.746094 3.660156 C 20.753906 3.621094 20.761719 3.597656 20.765625 3.574219 C 20.78125 3.390625 20.835938 3.214844 20.894531 3.039062 C 20.914062 2.972656 20.921875 2.898438 20.949219 2.839844 C 21.011719 2.703125 21.078125 2.570312 21.148438 2.441406 C 21.222656 2.308594 21.304688 2.175781 21.394531 2.054688 C 21.476562 1.949219 21.570312 1.851562 21.671875 1.757812 C 21.8125 1.628906 21.957031 1.507812 22.109375 1.390625 C 22.199219 1.324219 22.304688 1.273438 22.402344 1.214844 C 22.523438 1.144531 22.640625 1.074219 22.761719 1.007812 C 22.8125 0.980469 22.871094 0.972656 22.921875 0.957031 C 22.992188 0.929688 23.058594 0.902344 23.121094 0.878906 C 23.175781 0.859375 23.230469 0.835938 23.285156 0.832031 C 23.453125 0.804688 23.621094 0.765625 23.796875 0.789062 C 23.914062 0.800781 24.03125 0.789062 24.152344 0.789062 C 24.15625 0.796875 24.164062 0.804688 24.167969 0.8125 C 24.140625 0.835938 24.121094 0.867188 24.085938 0.878906 C 24.027344 0.90625 23.960938 0.917969 23.898438 0.9375 C 23.816406 0.960938 23.738281 0.988281 23.65625 1.019531 C 23.527344 1.074219 23.398438 1.132812 23.273438 1.203125 C 23.449219 1.21875 23.628906 1.191406 23.8125 1.296875 C 23.417969 1.390625 23.0625 1.546875 22.710938 1.726562 C 22.945312 1.714844 23.175781 1.699219 23.40625 1.6875 C 23.410156 1.699219 23.414062 1.710938 23.417969 1.722656 C 23.234375 1.796875 23.050781 1.867188 22.867188 1.945312 C 22.683594 2.023438 22.5 2.109375 22.289062 2.199219 C 22.355469 2.199219 22.394531 2.203125 22.433594 2.199219 C 22.558594 2.179688 22.683594 2.15625 22.808594 2.140625 C 22.882812 2.132812 22.957031 2.140625 23.035156 2.144531 C 23.050781 2.144531 23.066406 2.167969 23.082031 2.179688 C 23.066406 2.191406 23.050781 2.207031 23.035156 2.214844 C 22.949219 2.253906 22.859375 2.289062 22.769531 2.324219 C 22.726562 2.34375 22.683594 2.363281 22.644531 2.382812 C 22.511719 2.449219 22.382812 2.519531 22.253906 2.589844 C 22.195312 2.625 22.132812 2.660156 22.078125 2.707031 C 22.355469 2.644531 22.621094 2.542969 22.921875 2.613281 C 22.90625 2.628906 22.898438 2.644531 22.894531 2.644531 C 22.703125 2.675781 22.539062 2.769531 22.371094 2.855469 C 22.253906 2.917969 22.128906 2.96875 22.011719 3.039062 C 21.953125 3.074219 21.910156 3.140625 21.863281 3.183594 C 21.910156 3.171875 21.964844 3.160156 22.015625 3.140625 C 22.214844 3.054688 22.429688 3.058594 22.640625 3.070312 C 22.65625 3.070312 22.671875 3.089844 22.683594 3.101562 C 22.671875 3.109375 22.65625 3.117188 22.640625 3.125 C 22.546875 3.160156 22.453125 3.199219 22.355469 3.230469 C 22.296875 3.253906 22.234375 3.269531 22.175781 3.292969 C 22.097656 3.324219 22.015625 3.359375 21.941406 3.398438 C 21.871094 3.433594 21.804688 3.46875 21.734375 3.507812 C 21.71875 3.519531 21.714844 3.535156 21.691406 3.5625 C 21.816406 3.539062 21.921875 3.535156 22.011719 3.492188 C 22.128906 3.4375 22.246094 3.464844 22.363281 3.457031 C 22.382812 3.457031 22.402344 3.46875 22.425781 3.472656 C 22.410156 3.484375 22.394531 3.496094 22.378906 3.507812 C 22.296875 3.5625 22.214844 3.613281 22.132812 3.664062 C 22.109375 3.675781 22.085938 3.683594 22.0625 3.695312 C 22.0625 3.703125 22.066406 3.710938 22.070312 3.722656 C 22.101562 3.71875 22.132812 3.714844 22.164062 3.703125 C 22.261719 3.664062 22.355469 3.621094 22.453125 3.582031 C 22.558594 3.539062 22.664062 3.5 22.773438 3.464844 C 22.847656 3.441406 22.921875 3.425781 22.996094 3.40625 C 23.082031 3.382812 23.167969 3.355469 23.25 3.335938 C 23.269531 3.328125 23.289062 3.328125 23.304688 3.324219 C 23.441406 3.308594 23.585938 3.308594 23.714844 3.273438 C 23.917969 3.214844 24.121094 3.238281 24.324219 3.230469 C 24.460938 3.226562 24.59375 3.226562 24.730469 3.242188 C 24.84375 3.253906 24.957031 3.28125 25.066406 3.308594 C 25.140625 3.324219 25.210938 3.347656 25.28125 3.359375 C 25.417969 3.378906 25.539062 3.453125 25.667969 3.484375 C 25.792969 3.519531 25.898438 3.578125 26.011719 3.625 C 26.160156 3.6875 26.296875 3.769531 26.4375 3.851562 C 26.542969 3.910156 26.636719 3.980469 26.738281 4.046875 C 26.789062 4.078125 26.835938 4.113281 26.882812 4.152344 C 27 4.25 27.121094 4.34375 27.234375 4.449219 C 27.3125 4.519531 27.378906 4.597656 27.441406 4.679688 C 27.550781 4.824219 27.652344 4.96875 27.757812 5.113281 C 27.777344 5.144531 27.796875 5.175781 27.804688 5.210938 C 27.410156 4.945312 27.011719 4.695312 26.570312 4.507812 C 26.699219 4.703125 26.875 4.867188 26.972656 5.082031 C 26.964844 5.085938 26.960938 5.09375 26.953125 5.097656 C 26.742188 4.957031 26.535156 4.816406 26.320312 4.6875 C 26.101562 4.554688 25.875 4.441406 25.644531 4.328125 C 25.828125 4.570312 26.0625 4.769531 26.207031 5.039062 C 25.96875 4.914062 25.769531 4.738281 25.53125 4.621094 C 25.289062 4.5 25.074219 4.335938 24.796875 4.285156 C 25.058594 4.511719 25.273438 4.769531 25.472656 5.042969 C 25.464844 5.054688 25.457031 5.0625 25.449219 5.070312 C 25.375 5.035156 25.304688 5.003906 25.234375 4.964844 C 25.164062 4.921875 25.097656 4.878906 25.027344 4.832031 C 24.941406 4.78125 24.859375 4.726562 24.773438 4.675781 C 24.734375 4.65625 24.6875 4.652344 24.648438 4.628906 C 24.523438 4.5625 24.398438 4.492188 24.269531 4.429688 C 24.207031 4.402344 24.136719 4.386719 24.058594 4.375 C 24.355469 4.628906 24.644531 4.882812 24.832031 5.226562 C 24.355469 4.953125 23.886719 4.675781 23.355469 4.472656 C 23.441406 4.546875 23.515625 4.613281 23.585938 4.679688 C 23.664062 4.753906 23.742188 4.824219 23.8125 4.902344 C 23.875 4.972656 23.933594 5.054688 24.007812 5.148438 L 23.882812 5.148438 C 24.015625 5.207031 24.128906 5.25 24.234375 5.308594 C 24.339844 5.363281 24.433594 5.4375 24.53125 5.5 C 24.652344 5.578125 24.78125 5.652344 24.902344 5.734375 C 24.992188 5.796875 25.074219 5.878906 25.164062 5.941406 C 25.308594 6.042969 25.4375 6.15625 25.554688 6.285156 C 25.628906 6.371094 25.703125 6.464844 25.777344 6.554688 C 25.84375 6.636719 25.917969 6.722656 25.980469 6.808594 C 26.035156 6.886719 26.078125 6.96875 26.125 7.050781 C 26.164062 7.121094 26.195312 7.191406 26.230469 7.261719 C 26.269531 7.347656 26.308594 7.429688 26.347656 7.511719 C 26.375 7.574219 26.40625 7.640625 26.429688 7.703125 C 26.449219 7.765625 26.460938 7.828125 26.480469 7.890625 C 26.503906 7.96875 26.53125 8.046875 26.554688 8.125 C 26.558594 8.128906 26.5625 8.136719 26.5625 8.144531 C 26.578125 8.253906 26.585938 8.363281 26.601562 8.46875 C 26.613281 8.535156 26.632812 8.59375 26.644531 8.65625 C 26.648438 8.664062 26.648438 8.671875 26.648438 8.679688 C 26.648438 8.941406 26.726562 9.199219 26.699219 9.460938 C 26.695312 9.484375 26.6875 9.503906 26.683594 9.523438 C 26.675781 9.523438 26.667969 9.523438 26.660156 9.523438 C 26.65625 9.511719 26.652344 9.5 26.648438 9.488281 C 26.632812 9.40625 26.617188 9.328125 26.554688 9.257812 C 26.527344 9.226562 26.519531 9.175781 26.503906 9.136719 C 26.460938 9.03125 26.417969 8.929688 26.378906 8.824219 C 26.359375 8.765625 26.347656 8.707031 26.324219 8.644531 C 26.316406 8.621094 26.296875 8.597656 26.289062 8.574219 C 26.253906 8.496094 26.226562 8.414062 26.195312 8.332031 C 26.179688 8.285156 26.164062 8.234375 26.148438 8.1875 C 26.140625 8.179688 26.121094 8.164062 26.117188 8.167969 C 26.101562 8.171875 26.085938 8.1875 26.082031 8.199219 C 26.078125 8.285156 26.070312 8.367188 26.070312 8.453125 C 26.066406 8.589844 26.070312 8.722656 26.070312 8.859375 C 26.070312 8.890625 26.066406 8.925781 26.0625 8.960938 C 26.054688 8.960938 26.046875 8.960938 26.039062 8.960938 C 25.867188 8.523438 25.6875 8.082031 25.511719 7.636719 C 25.453125 7.785156 25.554688 7.917969 25.542969 8.058594 C 25.527344 8.199219 25.539062 8.339844 25.539062 8.488281 C 25.523438 8.484375 25.503906 8.484375 25.5 8.480469 C 25.480469 8.425781 25.460938 8.367188 25.445312 8.308594 C 25.425781 8.257812 25.414062 8.207031 25.390625 8.15625 C 25.335938 8.050781 25.273438 7.941406 25.222656 7.832031 C 25.183594 7.742188 25.15625 7.644531 25.117188 7.554688 C 25.085938 7.476562 25.039062 7.398438 25 7.320312 C 24.980469 7.273438 24.964844 7.222656 24.945312 7.179688 C 24.914062 7.105469 24.875 7.03125 24.832031 6.957031 C 24.828125 6.945312 24.808594 6.941406 24.777344 6.945312 C 24.789062 6.980469 24.804688 7.011719 24.816406 7.050781 C 24.824219 7.078125 24.828125 7.109375 24.832031 7.136719 C 24.835938 7.226562 24.832031 7.316406 24.84375 7.40625 C 24.859375 7.601562 24.886719 7.792969 24.90625 7.984375 C 24.90625 8.003906 24.90625 8.027344 24.886719 8.054688 C 24.871094 8.027344 24.84375 8 24.832031 7.96875 C 24.808594 7.917969 24.800781 7.867188 24.777344 7.816406 C 24.753906 7.761719 24.71875 7.71875 24.691406 7.667969 C 24.65625 7.597656 24.625 7.519531 24.589844 7.445312 C 24.546875 7.359375 24.5 7.277344 24.460938 7.191406 C 24.410156 7.089844 24.371094 6.980469 24.320312 6.878906 C 24.265625 6.769531 24.203125 6.667969 24.128906 6.566406 C 24.144531 6.621094 24.152344 6.671875 24.171875 6.722656 C 24.21875 6.851562 24.230469 6.984375 24.261719 7.109375 C 24.3125 7.320312 24.265625 7.527344 24.285156 7.730469 C 24.285156 7.738281 24.28125 7.746094 24.277344 7.757812 C 24.265625 7.75 24.25 7.746094 24.246094 7.738281 C 24.199219 7.617188 24.160156 7.492188 24.109375 7.371094 C 24.078125 7.289062 24.027344 7.210938 23.984375 7.136719 C 23.921875 7.019531 23.851562 6.910156 23.800781 6.789062 C 23.742188 6.640625 23.667969 6.5 23.578125 6.363281 C 23.558594 6.328125 23.542969 6.292969 23.507812 6.261719 C 23.527344 6.355469 23.542969 6.445312 23.558594 6.539062 C 23.570312 6.585938 23.570312 6.636719 23.585938 6.679688 C 23.652344 6.855469 23.613281 7.039062 23.640625 7.222656 C 23.648438 7.277344 23.667969 7.328125 23.671875 7.382812 C 23.675781 7.402344 23.664062 7.425781 23.652344 7.460938 C 23.476562 6.964844 23.195312 6.542969 22.996094 6.085938 L 22.964844 6.097656 C 22.984375 6.164062 23.003906 6.230469 23.023438 6.300781 C 23.046875 6.359375 23.082031 6.414062 23.09375 6.476562 C 23.117188 6.605469 23.121094 6.738281 23.140625 6.867188 C 23.144531 6.902344 23.160156 6.9375 23.171875 6.96875 C 23.175781 6.984375 23.1875 7.003906 23.183594 7.019531 C 23.160156 7.148438 23.257812 7.238281 23.296875 7.34375 C 23.332031 7.433594 23.371094 7.519531 23.414062 7.605469 C 23.453125 7.699219 23.496094 7.785156 23.53125 7.875 C 23.554688 7.925781 23.570312 7.980469 23.578125 8.03125 C 23.601562 8.117188 23.605469 8.203125 23.632812 8.28125 C 23.6875 8.433594 23.660156 8.59375 23.695312 8.742188 C 23.726562 8.875 23.71875 9.003906 23.714844 9.128906 C 23.710938 9.300781 23.691406 9.46875 23.671875 9.640625 C 23.65625 9.75 23.617188 9.851562 23.59375 9.960938 C 23.574219 10.039062 23.5625 10.121094 23.542969 10.203125 C 23.519531 10.289062 23.492188 10.371094 23.464844 10.453125 C 23.449219 10.511719 23.429688 10.570312 23.414062 10.628906 C 23.394531 10.6875 23.382812 10.746094 23.359375 10.800781 C 23.308594 10.925781 23.253906 11.046875 23.195312 11.167969 C 23.136719 11.296875 23.082031 11.421875 23.011719 11.542969 C 22.910156 11.726562 22.804688 11.90625 22.6875 12.078125 C 22.621094 12.179688 22.535156 12.269531 22.453125 12.363281 C 22.324219 12.503906 22.199219 12.648438 22.070312 12.789062 C 22.0625 12.800781 22.0625 12.8125 22.058594 12.828125 L 21.929688 12.828125 C 21.949219 12.777344 21.964844 12.726562 21.992188 12.675781 C 22.058594 12.554688 22.132812 12.4375 22.199219 12.316406 C 22.296875 12.128906 22.398438 11.945312 22.492188 11.753906 C 22.523438 11.6875 22.539062 11.609375 22.558594 11.53125 C 22.453125 11.523438 22.414062 11.59375 22.378906 11.640625 C 22.21875 11.824219 22.039062 11.980469 21.847656 12.128906 C 21.839844 12.136719 21.820312 12.136719 21.8125 12.128906 C 21.804688 12.125 21.800781 12.105469 21.804688 12.09375 C 21.832031 12.039062 21.859375 11.984375 21.890625 11.929688 C 21.933594 11.855469 21.980469 11.785156 22.019531 11.707031 C 22.101562 11.5625 22.175781 11.414062 22.253906 11.265625 C 22.308594 11.152344 22.363281 11.039062 22.417969 10.925781 C 22.441406 10.871094 22.46875 10.820312 22.488281 10.769531 C 22.511719 10.703125 22.535156 10.636719 22.554688 10.566406 C 22.5 10.601562 22.457031 10.632812 22.421875 10.671875 C 22.285156 10.832031 22.15625 11 22.019531 11.15625 C 21.972656 11.210938 21.925781 11.277344 21.832031 11.285156 C 21.835938 11.257812 21.835938 11.234375 21.84375 11.214844 C 21.890625 11.117188 21.9375 11.019531 21.984375 10.925781 C 22 10.886719 22.015625 10.851562 22.035156 10.816406 C 22.070312 10.730469 22.105469 10.644531 22.144531 10.558594 C 22.179688 10.476562 22.214844 10.394531 22.25 10.308594 C 22.289062 10.222656 22.328125 10.132812 22.363281 10.042969 C 22.394531 9.964844 22.417969 9.886719 22.441406 9.808594 C 22.460938 9.742188 22.480469 9.671875 22.496094 9.605469 C 22.210938 9.9375 21.929688 10.265625 21.648438 10.597656 C 21.636719 10.59375 21.628906 10.589844 21.617188 10.585938 C 21.617188 10.558594 21.605469 10.523438 21.617188 10.5 C 21.660156 10.417969 21.707031 10.339844 21.75 10.253906 C 21.792969 10.167969 21.828125 10.078125 21.867188 9.984375 C 21.886719 9.941406 21.90625 9.894531 21.925781 9.847656 C 21.941406 9.792969 21.949219 9.734375 21.972656 9.683594 C 22.019531 9.570312 22.082031 9.460938 22.136719 9.347656 C 22.15625 9.3125 22.171875 9.269531 22.1875 9.230469 C 22.210938 9.167969 22.238281 9.109375 22.257812 9.046875 C 22.28125 8.980469 22.300781 8.910156 22.324219 8.84375 C 22.316406 8.835938 22.308594 8.832031 22.300781 8.832031 C 22.042969 9.195312 21.707031 9.484375 21.40625 9.8125 C 21.390625 9.785156 21.382812 9.761719 21.390625 9.746094 C 21.421875 9.679688 21.460938 9.613281 21.492188 9.546875 C 21.53125 9.464844 21.574219 9.378906 21.613281 9.296875 C 21.648438 9.222656 21.679688 9.148438 21.710938 9.074219 C 21.75 8.984375 21.789062 8.890625 21.828125 8.796875 C 21.847656 8.746094 21.863281 8.691406 21.886719 8.640625 C 21.910156 8.582031 21.941406 8.523438 21.964844 8.464844 C 21.988281 8.40625 22.015625 8.34375 22.03125 8.285156 C 22.054688 8.210938 22.074219 8.132812 22.09375 8.054688 C 22.085938 8.050781 22.082031 8.050781 22.074219 8.042969 C 22.042969 8.082031 22.011719 8.125 21.980469 8.164062 C 21.910156 8.253906 21.84375 8.351562 21.765625 8.441406 C 21.679688 8.546875 21.578125 8.640625 21.488281 8.746094 C 21.402344 8.84375 21.316406 8.945312 21.234375 9.042969 C 21.175781 9.113281 21.128906 9.183594 21.136719 9.285156 C 21.15625 9.539062 21.167969 9.796875 21.179688 10.054688 C 21.195312 10.535156 21.207031 11.015625 21.222656 11.492188 C 21.226562 11.613281 21.222656 11.738281 21.226562 11.859375 C 21.234375 12.105469 21.238281 12.347656 21.246094 12.589844 C 21.25 12.667969 21.292969 13.097656 21.296875 13.171875 L 20.269531 13.171875 C 20.296875 13.035156 20.332031 12.535156 20.359375 12.390625 C 20.363281 12.359375 20.367188 12.328125 20.371094 12.292969 C 20.386719 12.105469 20.402344 11.917969 20.417969 11.734375 C 20.433594 11.578125 20.425781 11.421875 20.460938 11.273438 C 20.511719 11.082031 20.46875 10.886719 20.507812 10.699219 C 20.566406 10.4375 20.527344 10.179688 20.550781 9.921875 C 20.632812 9.050781 20.589844 8.179688 20.582031 7.304688 C 20.578125 7.105469 20.566406 6.90625 20.542969 6.707031 C 20.535156 6.636719 20.488281 6.570312 20.460938 6.507812 C 20.429688 6.429688 20.390625 6.355469 20.359375 6.28125 C 20.339844 6.230469 20.320312 6.183594 20.300781 6.132812 C 20.292969 6.132812 20.285156 6.132812 20.277344 6.132812 C 20.285156 6.246094 20.289062 6.359375 20.296875 6.472656 C 20.300781 6.539062 20.320312 6.605469 20.324219 6.671875 C 20.328125 6.777344 20.320312 6.886719 20.328125 6.992188 C 20.332031 7.058594 20.359375 7.121094 20.363281 7.1875 C 20.375 7.269531 20.375 7.351562 20.378906 7.445312 C 20.355469 7.4375 20.328125 7.433594 20.320312 7.421875 C 20.28125 7.351562 20.246094 7.277344 20.210938 7.203125 C 20.199219 7.171875 20.1875 7.136719 20.1875 7.105469 C 20.183594 6.695312 20.183594 6.28125 20.183594 5.851562 L 20.082031 5.851562 C 18.902344 5.851562 17.726562 5.851562 16.546875 5.851562 C 16.511719 5.851562 16.480469 5.84375 16.441406 5.835938 C 16.46875 5.816406 16.492188 5.789062 16.519531 5.773438 C 16.625 5.695312 16.730469 5.617188 16.84375 5.554688 C 16.964844 5.484375 17.09375 5.425781 17.21875 5.367188 C 17.332031 5.3125 17.445312 5.253906 17.5625 5.207031 C 17.65625 5.167969 17.753906 5.144531 17.847656 5.113281 C 17.929688 5.085938 18.011719 5.054688 18.09375 5.035156 C 18.179688 5.011719 18.269531 5 18.355469 4.984375 C 18.480469 4.960938 18.609375 4.9375 18.738281 4.914062 C 18.753906 4.910156 18.761719 4.910156 18.777344 4.910156 C 19.125 4.902344 19.472656 4.835938 19.824219 4.859375 C 19.851562 4.863281 19.878906 4.855469 19.90625 4.851562 C 19.90625 4.84375 19.910156 4.839844 19.910156 4.832031 C 19.816406 4.785156 19.726562 4.738281 19.632812 4.695312 C 19.566406 4.664062 19.496094 4.640625 19.425781 4.617188 C 19.394531 4.605469 19.359375 4.601562 19.328125 4.601562 C 19.242188 4.601562 19.15625 4.601562 19.074219 4.601562 C 19.007812 4.605469 18.933594 4.582031 18.882812 4.644531 C 18.875 4.648438 18.859375 4.648438 18.847656 4.648438 C 18.683594 4.652344 18.53125 4.71875 18.375 4.765625 C 18.265625 4.800781 18.15625 4.828125 18.050781 4.867188 C 17.953125 4.898438 17.863281 4.945312 17.765625 4.980469 C 17.722656 4.996094 17.675781 4.992188 17.621094 4.980469 C 17.871094 4.800781 18.128906 4.628906 18.386719 4.449219 C 18.378906 4.445312 18.371094 4.4375 18.363281 4.441406 C 18.292969 4.460938 18.226562 4.488281 18.15625 4.511719 C 18.109375 4.527344 18.0625 4.535156 18.015625 4.546875 C 17.90625 4.582031 17.792969 4.613281 17.683594 4.652344 C 17.597656 4.683594 17.511719 4.722656 17.425781 4.757812 C 17.351562 4.785156 17.273438 4.8125 17.199219 4.839844 C 17.191406 4.832031 17.183594 4.828125 17.179688 4.824219 C 17.191406 4.800781 17.199219 4.773438 17.214844 4.757812 C 17.355469 4.617188 17.5 4.484375 17.671875 4.378906 C 17.726562 4.34375 17.769531 4.289062 17.820312 4.242188 C 17.816406 4.234375 17.8125 4.226562 17.808594 4.21875 C 17.777344 4.230469 17.75 4.246094 17.714844 4.257812 C 17.667969 4.273438 17.625 4.292969 17.574219 4.308594 C 17.464844 4.335938 17.347656 4.359375 17.242188 4.394531 C 17.105469 4.441406 16.976562 4.5 16.84375 4.554688 C 16.78125 4.574219 16.71875 4.585938 16.660156 4.605469 C 16.609375 4.625 16.5625 4.65625 16.511719 4.675781 C 16.492188 4.6875 16.464844 4.683594 16.441406 4.6875 C 16.453125 4.671875 16.464844 4.65625 16.476562 4.644531 C 16.570312 4.546875 16.660156 4.445312 16.757812 4.355469 C 16.851562 4.265625 16.957031 4.191406 17.074219 4.101562 C 17.03125 4.101562 17.007812 4.09375 16.992188 4.097656 C 16.886719 4.121094 16.78125 4.148438 16.675781 4.175781 C 16.664062 4.175781 16.648438 4.171875 16.636719 4.175781 C 16.554688 4.199219 16.476562 4.222656 16.394531 4.25 C 16.304688 4.277344 16.210938 4.308594 16.121094 4.347656 C 16.03125 4.382812 15.945312 4.429688 15.859375 4.46875 C 15.832031 4.476562 15.808594 4.476562 15.78125 4.484375 C 15.773438 4.476562 15.769531 4.46875 15.765625 4.460938 L 16.484375 3.863281 C 16.480469 3.855469 16.472656 3.847656 16.46875 3.839844 C 16.003906 4.035156 15.515625 4.175781 15.0625 4.410156 L 15.042969 4.382812 C 15.21875 4.203125 15.398438 4.023438 15.582031 3.835938 C 15.152344 4.015625 14.707031 4.128906 14.3125 4.359375 C 14.304688 4.355469 14.300781 4.347656 14.292969 4.34375 L 14.660156 3.941406 C 14.65625 3.933594 14.652344 3.925781 14.644531 3.917969 C 14.582031 3.941406 14.515625 3.960938 14.457031 3.984375 C 14.378906 4.019531 14.300781 4.0625 14.226562 4.09375 C 14.113281 4.144531 14 4.191406 13.886719 4.242188 C 13.804688 4.277344 13.71875 4.308594 13.636719 4.347656 C 13.59375 4.367188 13.558594 4.40625 13.503906 4.390625 C 13.503906 4.378906 13.5 4.363281 13.507812 4.355469 C 13.574219 4.285156 13.644531 4.214844 13.714844 4.144531 C 13.863281 3.988281 14.015625 3.832031 14.203125 3.707031 C 14.289062 3.652344 14.367188 3.582031 14.453125 3.527344 C 14.542969 3.472656 14.640625 3.425781 14.738281 3.378906 C 14.8125 3.339844 14.894531 3.300781 14.976562 3.265625 C 15.050781 3.230469 15.132812 3.199219 15.210938 3.164062 C 15.230469 3.15625 15.25 3.140625 15.269531 3.132812 C 15.332031 3.113281 15.398438 3.097656 15.460938 3.082031 C 15.605469 3.039062 15.757812 3 15.90625 2.960938 C 15.921875 2.957031 15.9375 2.960938 15.953125 2.957031 C 16.078125 2.929688 16.195312 2.886719 16.320312 2.886719 C 16.695312 2.875 17.070312 2.839844 17.445312 2.914062 C 17.589844 2.941406 17.734375 2.957031 17.875 3 C 17.960938 3.03125 18.054688 3.03125 18.140625 3.054688 C 18.21875 3.070312 18.296875 3.097656 18.375 3.125 C 18.460938 3.152344 18.542969 3.1875 18.628906 3.222656 C 18.6875 3.242188 18.746094 3.253906 18.800781 3.277344 C 18.9375 3.34375 19.074219 3.414062 19.207031 3.484375 C 19.308594 3.542969 19.414062 3.597656 19.507812 3.667969 C 19.632812 3.757812 19.746094 3.859375 19.859375 3.960938 C 20.035156 4.125 20.207031 4.292969 20.347656 4.492188 C 20.34375 4.425781 20.335938 4.359375 20.308594 4.300781 C 20.269531 4.207031 20.21875 4.121094 20.175781 4.035156 C 20.109375 3.902344 20.007812 3.792969 19.890625 3.710938 C 19.742188 3.609375 19.578125 3.527344 19.414062 3.449219 C 19.292969 3.386719 19.15625 3.335938 19.027344 3.28125 C 18.988281 3.261719 18.945312 3.242188 18.902344 3.230469 C 18.796875 3.203125 18.691406 3.179688 18.585938 3.152344 C 18.574219 3.148438 18.570312 3.132812 18.558594 3.113281 C 18.773438 3.089844 18.980469 3.074219 19.1875 3.113281 C 19.109375 3.058594 19.015625 3.042969 18.925781 3.019531 C 18.835938 2.996094 18.753906 2.949219 18.664062 2.921875 C 18.570312 2.890625 18.476562 2.871094 18.382812 2.847656 C 18.296875 2.824219 18.210938 2.800781 18.121094 2.777344 C 18.273438 2.753906 18.414062 2.726562 18.558594 2.714844 C 18.6875 2.703125 18.816406 2.707031 18.945312 2.707031 C 19 2.707031 19.058594 2.707031 19.121094 2.707031 C 18.722656 2.539062 18.328125 2.390625 17.890625 2.3125 C 17.980469 2.25 18.074219 2.246094 18.164062 2.234375 C 18.261719 2.222656 18.359375 2.203125 18.457031 2.195312 C 18.546875 2.1875 18.644531 2.191406 18.734375 2.191406 C 18.664062 2.15625 18.589844 2.140625 18.515625 2.113281 C 18.410156 2.078125 18.304688 2.03125 18.199219 1.992188 C 18.136719 1.96875 18.066406 1.964844 18.003906 1.9375 C 17.886719 1.894531 17.769531 1.851562 17.644531 1.851562 C 17.578125 1.851562 17.511719 1.851562 17.445312 1.851562 C 17.445312 1.839844 17.445312 1.832031 17.445312 1.820312 C 17.539062 1.800781 17.636719 1.78125 17.734375 1.761719 C 17.835938 1.742188 17.933594 1.71875 18.035156 1.703125 C 18.132812 1.6875 18.230469 1.679688 18.328125 1.664062 C 17.910156 1.515625 17.5 1.367188 17.054688 1.335938 C 17.058594 1.328125 17.058594 1.316406 17.058594 1.308594 C 17.273438 1.273438 17.492188 1.234375 17.726562 1.195312 C 17.578125 1.15625 17.453125 1.121094 17.328125 1.085938 C 17.207031 1.046875 17.089844 0.996094 16.96875 0.953125 C 16.851562 0.910156 16.714844 0.929688 16.601562 0.859375 C 16.605469 0.851562 16.605469 0.847656 16.609375 0.839844 C 16.792969 0.816406 16.976562 0.789062 17.15625 0.761719 C 17.097656 0.734375 17.035156 0.71875 16.972656 0.695312 C 16.808594 0.640625 16.648438 0.582031 16.46875 0.570312 C 16.460938 0.570312 16.449219 0.566406 16.4375 0.566406 C 16.300781 0.535156 16.160156 0.503906 16.019531 0.480469 C 15.953125 0.46875 15.882812 0.476562 15.8125 0.476562 C 15.808594 0.46875 15.808594 0.464844 15.804688 0.457031 C 15.816406 0.449219 15.828125 0.4375 15.839844 0.433594 C 15.929688 0.421875 16.023438 0.410156 16.109375 0.398438 C 16.273438 0.382812 16.4375 0.371094 16.601562 0.355469 C 16.617188 0.351562 16.628906 0.347656 16.644531 0.339844 L 17.394531 0.339844 Z M 17.394531 0.347656 "/><path style=" stroke:none;fill-rule:nonzero;fill:#ffffff;fill-opacity:1;" d="M 23.816406 4.535156 C 23.738281 4.515625 23.660156 4.5 23.585938 4.476562 C 23.492188 4.449219 23.402344 4.417969 23.308594 4.398438 C 23.238281 4.378906 23.167969 4.371094 23.09375 4.359375 C 22.980469 4.34375 22.867188 4.328125 22.753906 4.3125 C 22.683594 4.300781 22.609375 4.277344 22.539062 4.265625 C 22.472656 4.257812 22.410156 4.257812 22.339844 4.242188 C 22.433594 4.191406 22.53125 4.15625 22.613281 4.097656 C 22.746094 4.007812 22.847656 4.089844 22.957031 4.132812 C 23.039062 4.160156 23.121094 4.1875 23.203125 4.21875 C 23.296875 4.257812 23.386719 4.304688 23.480469 4.34375 C 23.554688 4.375 23.628906 4.40625 23.699219 4.441406 C 23.742188 4.460938 23.785156 4.488281 23.828125 4.515625 C 23.824219 4.523438 23.820312 4.527344 23.816406 4.535156 "/><path style="fill-rule:nonzero;fill:#ffffff;fill-opacity:1;stroke-width:5.556;stroke-linecap:butt;stroke-linejoin:miter;stroke:#ce7338;stroke-opacity:1;stroke-miterlimit:27.778;" d="M 561.735455 1426.270605 L 633.632059 1426.270605 L 633.632059 1443.167169 L 561.735455 1443.167169 Z M 561.735455 1426.270605 " transform="matrix(0.0226562,0,0,0.0226562,-2.207278,-9.704545)"/><path style="fill-rule:nonzero;fill:#ffffff;fill-opacity:1;stroke-width:5.556;stroke-linecap:butt;stroke-linejoin:miter;stroke:#ce7338;stroke-opacity:1;stroke-miterlimit:27.778;" d="M 906.218464 1426.270605 L 978.115068 1426.270605 L 978.115068 1443.167169 L 906.218464 1443.167169 Z M 906.218464 1426.270605 " transform="matrix(0.0226562,0,0,0.0226562,-2.207278,-9.704545)"/><path style=" stroke:none;fill-rule:nonzero;fill:#ffffff;fill-opacity:1;" d="M 11.644531 22.167969 C 11.644531 22.167969 11.667969 17.296875 11.644531 16.917969 C 11.621094 16.539062 11.960938 16.339844 11.960938 16.339844 L 11.960938 12.371094 C 11.832031 8.59375 15.1875 8.535156 15.1875 8.535156 C 18.65625 8.855469 18.464844 12.363281 18.464844 12.363281 L 18.464844 16.351562 C 18.761719 16.464844 18.753906 16.78125 18.753906 16.78125 L 18.753906 22.21875 C 18.757812 22.4375 18.476562 22.632812 18.476562 22.632812 L 18.476562 22.816406 L 19.722656 22.816406 L 19.722656 22.648438 C 19.425781 22.484375 19.433594 22.191406 19.433594 22.191406 L 19.433594 16.890625 C 19.425781 16.496094 19.789062 16.34375 19.789062 16.34375 L 19.789062 16.203125 L 19.765625 7.007812 C 19.765625 6.59375 19.425781 6.253906 19.011719 6.253906 L 11.339844 6.253906 C 10.925781 6.253906 10.589844 6.589844 10.585938 7.003906 L 10.589844 16.207031 L 10.589844 16.335938 C 10.902344 16.546875 10.886719 16.8125 10.886719 16.8125 L 10.886719 22.175781 C 10.886719 22.175781 10.859375 22.53125 10.640625 22.648438 L 10.640625 22.820312 L 11.886719 22.820312 L 11.886719 22.648438 C 11.882812 22.644531 11.613281 22.457031 11.644531 22.167969 Z M 11.644531 22.167969 "/><path style=" stroke:none;fill-rule:nonzero;fill:#ffffff;fill-opacity:1;" d="M 4.003906 22.839844 L 5 22.839844 L 5 23.070312 L 4.003906 23.070312 Z M 4.003906 22.839844 "/><path style=" stroke:none;fill-rule:nonzero;fill:#ffffff;fill-opacity:1;" d="M 8.886719 22.839844 L 9.882812 22.839844 L 9.882812 23.09375 L 8.886719 23.09375 Z M 8.886719 22.839844 "/><path style=" stroke:none;fill-rule:nonzero;fill:#ffffff;fill-opacity:1;" d="M 4.734375 22.480469 C 4.734375 22.480469 4.75 19.515625 4.734375 19.285156 C 4.71875 19.058594 4.925781 18.933594 4.925781 18.933594 L 4.925781 16.519531 C 4.851562 14.21875 6.90625 14.183594 6.90625 14.183594 C 9.03125 14.375 8.917969 16.511719 8.917969 16.511719 L 8.917969 18.941406 C 9.101562 19.011719 9.09375 19.199219 9.09375 19.199219 L 9.09375 22.507812 C 9.097656 22.640625 8.921875 22.757812 8.921875 22.757812 L 8.921875 22.871094 L 9.6875 22.871094 L 9.6875 22.769531 C 9.503906 22.667969 9.511719 22.492188 9.511719 22.492188 L 9.511719 19.269531 C 9.507812 19.027344 9.726562 18.933594 9.726562 18.933594 L 9.726562 12.796875 L 5.191406 12.796875 C 4.582031 12.796875 4.089844 13.289062 4.089844 13.902344 L 4.089844 18.929688 C 4.28125 19.058594 4.269531 19.21875 4.269531 19.21875 L 4.269531 22.480469 C 4.269531 22.480469 4.253906 22.695312 4.117188 22.765625 L 4.117188 22.871094 L 4.882812 22.871094 L 4.882812 22.765625 C 4.878906 22.769531 4.714844 22.65625 4.734375 22.480469 Z M 4.734375 22.480469 "/><path style=" stroke:none;fill-rule:nonzero;fill:#ffffff;fill-opacity:1;" d="M 20.285156 22.8125 L 21.285156 22.8125 L 21.285156 23.128906 L 20.285156 23.128906 Z M 20.285156 22.8125 "/><path style=" stroke:none;fill-rule:nonzero;fill:#ffffff;fill-opacity:1;" d="M 25.113281 22.839844 L 26.113281 22.839844 L 26.113281 23.070312 L 25.113281 23.070312 Z M 25.113281 22.839844 "/><path style=" stroke:none;fill-rule:nonzero;fill:#ffffff;fill-opacity:1;" d="M 21.046875 22.5 C 21.0625 19.527344 21.0625 19.527344 21.046875 19.300781 C 21.03125 19.070312 21.238281 18.945312 21.238281 18.945312 L 21.238281 16.527344 C 21.164062 14.226562 23.21875 14.1875 23.21875 14.1875 C 25.34375 14.382812 25.230469 16.523438 25.230469 16.523438 L 25.230469 18.957031 C 25.414062 19.023438 25.40625 19.214844 25.40625 19.214844 L 25.40625 22.53125 C 25.410156 22.664062 25.234375 22.785156 25.234375 22.785156 L 25.234375 22.898438 L 26 22.898438 L 26 22.796875 C 25.816406 22.695312 25.824219 22.515625 25.824219 22.515625 L 25.824219 19.285156 C 25.820312 19.042969 26.039062 18.953125 26.039062 18.953125 L 26.039062 13.90625 C 26.039062 13.292969 25.542969 12.796875 24.9375 12.796875 L 20.402344 12.796875 L 20.402344 18.941406 C 20.59375 19.070312 20.582031 19.234375 20.582031 19.234375 L 20.582031 22.503906 C 20.582031 22.503906 20.566406 22.722656 20.429688 22.792969 L 20.429688 22.898438 L 21.191406 22.898438 L 21.191406 22.792969 C 21.191406 22.792969 21.027344 22.679688 21.046875 22.5 Z M 21.046875 22.5 "/><path style=" stroke:none;fill-rule:nonzero;fill:#ffffff;fill-opacity:1;" d="M 23.445312 23.390625 C 23.417969 23.332031 23.390625 23.269531 23.351562 23.210938 C 23.304688 23.128906 23.25 23.050781 23.203125 22.96875 C 23.164062 22.902344 23.136719 22.832031 23.101562 22.765625 C 23.09375 22.753906 23.066406 22.742188 23.058594 22.746094 C 22.957031 22.792969 22.898438 23.03125 22.957031 23.128906 C 23 23.203125 23.035156 23.277344 23.078125 23.351562 C 23.136719 23.457031 23.199219 23.5625 23.265625 23.679688 C 23.332031 23.578125 23.390625 23.480469 23.445312 23.390625 M 23.851562 24.085938 C 23.824219 24.117188 23.796875 24.144531 23.773438 24.179688 C 23.738281 24.25 23.648438 24.296875 23.671875 24.386719 C 23.683594 24.4375 23.722656 24.484375 23.75 24.535156 C 23.835938 24.683594 23.921875 24.835938 24.007812 24.984375 C 24.09375 25.136719 24.179688 25.292969 24.265625 25.445312 C 24.28125 25.476562 24.304688 25.519531 24.324219 25.519531 C 24.4375 25.527344 24.554688 25.527344 24.675781 25.527344 C 24.398438 25.042969 24.128906 24.574219 23.851562 24.085938 M 23.261719 25.042969 C 23.226562 25.097656 23.191406 25.152344 23.15625 25.207031 C 23.09375 25.316406 23.039062 25.425781 22.976562 25.53125 C 22.902344 25.65625 22.824219 25.773438 22.765625 25.910156 C 22.710938 26.039062 22.742188 26.152344 22.785156 26.253906 C 22.859375 26.421875 23.011719 26.515625 23.191406 26.546875 C 23.265625 26.558594 23.34375 26.546875 23.421875 26.515625 C 23.546875 26.460938 23.648438 26.394531 23.714844 26.265625 C 23.796875 26.09375 23.78125 25.933594 23.699219 25.773438 C 23.644531 25.671875 23.578125 25.570312 23.515625 25.46875 C 23.476562 25.394531 23.441406 25.320312 23.398438 25.25 C 23.359375 25.175781 23.304688 25.109375 23.261719 25.042969 M 14.714844 24.769531 C 14.75 24.75 14.789062 24.738281 14.820312 24.714844 C 14.902344 24.65625 14.988281 24.609375 15.089844 24.59375 C 15.214844 24.570312 15.339844 24.542969 15.460938 24.507812 C 15.632812 24.460938 15.71875 24.28125 15.660156 24.109375 C 15.640625 24.058594 15.625 24.007812 15.601562 23.960938 C 15.578125 23.910156 15.542969 23.863281 15.503906 23.800781 C 15.683594 23.660156 15.917969 23.625 16.140625 23.539062 C 16.214844 23.605469 16.234375 23.710938 16.285156 23.800781 C 16.351562 23.921875 16.316406 24.066406 16.363281 24.191406 C 16.378906 24.226562 16.355469 24.273438 16.347656 24.316406 C 16.34375 24.347656 16.335938 24.378906 16.335938 24.40625 C 16.320312 24.589844 16.234375 24.734375 16.109375 24.863281 C 16.09375 24.882812 16.078125 24.90625 16.058594 24.925781 C 15.980469 24.976562 15.894531 25.019531 15.820312 25.082031 C 15.734375 25.15625 15.628906 25.164062 15.527344 25.183594 C 15.40625 25.210938 15.277344 25.179688 15.148438 25.226562 C 15.03125 25.273438 14.921875 25.382812 14.933594 25.515625 L 15.898438 25.515625 C 15.898438 25.394531 15.824219 25.265625 15.710938 25.210938 C 15.734375 25.1875 15.75 25.160156 15.773438 25.144531 C 15.871094 25.085938 15.96875 25.03125 16.066406 24.96875 C 16.070312 24.964844 16.0625 24.9375 16.058594 24.921875 C 16.128906 24.953125 16.136719 24.875 16.171875 24.847656 C 16.234375 24.792969 16.238281 24.792969 16.289062 24.855469 C 16.378906 24.964844 16.421875 25.089844 16.460938 25.21875 C 16.480469 25.292969 16.488281 25.359375 16.492188 25.433594 C 16.496094 25.496094 16.527344 25.527344 16.59375 25.523438 C 16.707031 25.519531 16.816406 25.523438 16.929688 25.523438 C 17.660156 25.523438 18.394531 25.523438 19.125 25.523438 C 19.242188 25.523438 19.242188 25.523438 19.242188 25.40625 C 19.242188 25.128906 19.246094 24.84375 19.238281 24.5625 C 19.238281 24.46875 19.234375 24.367188 19.167969 24.292969 C 19.132812 24.253906 19.085938 24.222656 19.046875 24.191406 C 19.042969 24.195312 19.039062 24.199219 19.03125 24.203125 L 19.03125 24.144531 C 19.257812 24.070312 19.46875 23.964844 19.625 23.785156 C 19.78125 23.605469 19.882812 23.394531 19.898438 23.136719 C 19.917969 23.160156 19.929688 23.167969 19.933594 23.179688 C 19.9375 23.207031 19.9375 23.234375 19.9375 23.261719 C 19.9375 23.984375 19.9375 24.707031 19.9375 25.429688 C 19.9375 25.460938 19.9375 25.488281 19.9375 25.527344 L 20.035156 25.527344 C 20.726562 25.527344 21.417969 25.523438 22.113281 25.527344 C 22.1875 25.527344 22.230469 25.496094 22.261719 25.441406 C 22.335938 25.304688 22.402344 25.171875 22.480469 25.035156 C 22.539062 24.9375 22.605469 24.847656 22.664062 24.75 C 22.726562 24.640625 22.796875 24.53125 22.851562 24.414062 C 22.867188 24.382812 22.859375 24.324219 22.839844 24.292969 C 22.738281 24.105469 22.625 23.925781 22.519531 23.742188 C 22.445312 23.613281 22.363281 23.488281 22.324219 23.347656 C 22.289062 23.234375 22.242188 23.109375 22.269531 22.980469 C 22.269531 22.960938 22.269531 22.941406 22.269531 22.925781 C 22.269531 22.773438 22.332031 22.640625 22.414062 22.519531 C 22.535156 22.339844 22.695312 22.199219 22.882812 22.085938 C 23.007812 22.007812 23.125 21.917969 23.25 21.835938 C 23.332031 21.78125 23.371094 21.800781 23.417969 21.894531 C 23.460938 21.988281 23.515625 22.078125 23.566406 22.167969 C 23.617188 22.261719 23.667969 22.355469 23.722656 22.449219 C 23.78125 22.542969 23.839844 22.632812 23.90625 22.742188 C 23.957031 22.632812 24.011719 22.539062 24.050781 22.4375 C 24.09375 22.324219 24.128906 22.207031 24.164062 22.089844 C 24.171875 22.050781 24.171875 22.015625 24.175781 21.976562 C 24.1875 21.789062 24.199219 21.59375 24.136719 21.414062 C 24.050781 21.175781 23.929688 20.957031 23.703125 20.824219 C 23.503906 20.707031 23.292969 20.683594 23.070312 20.730469 C 23.050781 20.738281 23.03125 20.730469 23.007812 20.734375 C 22.871094 20.75 22.726562 20.75 22.59375 20.789062 C 22.40625 20.839844 22.234375 20.941406 22.101562 21.09375 C 21.914062 21.304688 21.734375 21.523438 21.546875 21.738281 C 21.539062 21.746094 21.523438 21.753906 21.496094 21.75 C 21.515625 21.695312 21.523438 21.640625 21.550781 21.589844 C 21.613281 21.464844 21.679688 21.339844 21.75 21.222656 C 21.820312 21.097656 21.898438 20.96875 21.980469 20.851562 C 22.070312 20.726562 22.167969 20.601562 22.273438 20.492188 C 22.363281 20.402344 22.472656 20.335938 22.578125 20.265625 C 22.671875 20.199219 22.777344 20.140625 22.878906 20.082031 C 22.832031 19.890625 22.808594 19.699219 22.890625 19.511719 C 22.964844 19.34375 23.0625 19.199219 23.1875 19.0625 C 23.261719 18.984375 23.3125 18.886719 23.371094 18.800781 C 23.390625 18.769531 23.40625 18.742188 23.425781 18.714844 C 23.316406 18.722656 23.222656 18.738281 23.132812 18.742188 C 23.042969 18.742188 22.902344 18.625 22.902344 18.515625 C 22.902344 18.445312 22.898438 18.375 22.902344 18.308594 C 22.910156 18.171875 23.03125 18.070312 23.171875 18.0625 C 23.375 18.042969 23.503906 18.144531 23.570312 18.316406 C 23.601562 18.398438 23.59375 18.5 23.59375 18.589844 C 23.597656 18.746094 23.542969 18.886719 23.476562 19.027344 C 23.429688 19.117188 23.402344 19.21875 23.371094 19.320312 C 23.347656 19.402344 23.320312 19.484375 23.308594 19.570312 C 23.300781 19.65625 23.332031 19.734375 23.390625 19.796875 C 23.480469 19.890625 23.589844 19.953125 23.699219 20.011719 C 23.835938 20.089844 23.960938 20.183594 24.097656 20.261719 C 24.242188 20.34375 24.367188 20.445312 24.472656 20.570312 C 24.589844 20.703125 24.679688 20.855469 24.734375 21.027344 C 24.765625 21.136719 24.796875 21.242188 24.824219 21.351562 C 24.890625 21.59375 24.863281 21.835938 24.855469 22.078125 C 24.851562 22.164062 24.804688 22.253906 24.777344 22.339844 C 24.746094 22.425781 24.722656 22.511719 24.6875 22.597656 C 24.652344 22.679688 24.609375 22.757812 24.566406 22.835938 C 24.507812 22.949219 24.453125 23.058594 24.394531 23.171875 C 24.363281 23.230469 24.339844 23.292969 24.296875 23.335938 C 24.21875 23.410156 24.292969 23.460938 24.320312 23.511719 C 24.378906 23.621094 24.449219 23.726562 24.511719 23.832031 C 24.578125 23.945312 24.644531 24.0625 24.707031 24.175781 C 24.773438 24.292969 24.835938 24.40625 24.902344 24.519531 C 24.953125 24.605469 25.007812 24.691406 25.0625 24.777344 C 25.105469 24.851562 25.148438 24.933594 25.191406 25.011719 C 25.242188 25.101562 25.289062 25.1875 25.335938 25.273438 C 25.371094 25.339844 25.410156 25.40625 25.453125 25.46875 C 25.46875 25.496094 25.507812 25.527344 25.535156 25.527344 C 25.640625 25.519531 25.75 25.507812 25.851562 25.488281 C 25.878906 25.484375 25.90625 25.457031 25.914062 25.433594 C 25.953125 25.355469 25.988281 25.273438 26.027344 25.179688 C 26.050781 25.25 26.066406 25.316406 26.082031 25.375 C 26.097656 25.429688 26.117188 25.488281 26.140625 25.539062 C 26.203125 25.65625 26.265625 25.773438 26.339844 25.882812 C 26.398438 25.972656 26.472656 26.050781 26.542969 26.136719 C 26.550781 26.148438 26.558594 26.164062 26.566406 26.175781 L 26.566406 26.222656 L 24.441406 26.222656 C 24.425781 26.277344 24.410156 26.328125 24.394531 26.375 C 24.359375 26.464844 24.335938 26.566406 24.285156 26.648438 C 24.191406 26.804688 24.0625 26.933594 23.902344 27.035156 C 23.765625 27.125 23.625 27.183594 23.464844 27.203125 C 23.4375 27.203125 23.40625 27.222656 23.378906 27.234375 L 23.109375 27.234375 C 23.039062 27.21875 22.96875 27.210938 22.90625 27.183594 C 22.796875 27.132812 22.691406 27.085938 22.597656 27.019531 C 22.460938 26.929688 22.34375 26.808594 22.265625 26.664062 C 22.195312 26.523438 22.140625 26.375 22.078125 26.226562 L 15.785156 26.226562 C 15.78125 26.234375 15.773438 26.242188 15.773438 26.25 C 15.769531 26.453125 15.753906 26.660156 15.695312 26.863281 C 15.664062 26.972656 15.617188 27.070312 15.539062 27.15625 C 15.511719 27.183594 15.480469 27.210938 15.449219 27.238281 L 15.386719 27.238281 C 15.355469 27.199219 15.3125 27.164062 15.289062 27.117188 C 15.246094 27.03125 15.207031 26.945312 15.175781 26.855469 C 15.140625 26.742188 15.117188 26.625 15.089844 26.507812 C 15.082031 26.460938 15.085938 26.410156 15.082031 26.359375 C 15.082031 26.316406 15.082031 26.277344 15.082031 26.222656 C 15.019531 26.222656 14.960938 26.222656 14.898438 26.222656 C 14.667969 26.222656 14.441406 26.222656 14.210938 26.222656 C 14.191406 26.222656 14.171875 26.210938 14.152344 26.207031 C 14.160156 26.191406 14.175781 26.175781 14.179688 26.160156 C 14.199219 26.097656 14.222656 26.039062 14.238281 25.972656 C 14.265625 25.871094 14.289062 25.769531 14.3125 25.667969 C 14.328125 25.585938 14.34375 25.503906 14.355469 25.425781 C 14.378906 25.304688 14.410156 25.191406 14.484375 25.089844 C 14.542969 25.007812 14.597656 24.921875 14.65625 24.835938 C 14.679688 24.808594 14.699219 24.789062 14.714844 24.769531 "/><path style=" stroke:none;fill-rule:nonzero;fill:#ffffff;fill-opacity:1;" d="M 6.480469 25.527344 C 6.480469 25.335938 6.480469 25.148438 6.476562 24.964844 C 6.476562 24.945312 6.441406 24.917969 6.421875 24.917969 C 6.289062 24.914062 6.160156 24.953125 6.0625 25.035156 C 5.921875 25.160156 5.859375 25.328125 5.890625 25.527344 Z M 5.195312 25.371094 C 5.214844 25.289062 5.222656 25.203125 5.25 25.128906 C 5.292969 25.023438 5.347656 24.929688 5.402344 24.835938 C 5.523438 24.617188 5.714844 24.46875 5.925781 24.355469 C 6.019531 24.300781 6.132812 24.25 6.257812 24.25 C 6.328125 24.25 6.398438 24.222656 6.472656 24.207031 C 6.476562 24.183594 6.480469 24.160156 6.480469 24.136719 C 6.480469 23.6875 6.480469 23.242188 6.480469 22.792969 C 6.480469 22.660156 6.382812 22.566406 6.246094 22.558594 C 6.226562 22.558594 6.199219 22.550781 6.175781 22.53125 C 6.757812 22.523438 7.058594 22.21875 7.128906 21.65625 C 7.179688 21.664062 7.171875 21.707031 7.171875 21.746094 C 7.171875 22.078125 7.164062 22.414062 7.164062 22.75 C 7.164062 23.648438 7.164062 24.542969 7.164062 25.445312 C 7.164062 25.503906 7.183594 25.527344 7.242188 25.527344 C 7.246094 25.527344 7.257812 25.527344 7.261719 25.527344 C 9.03125 25.527344 10.796875 25.527344 12.5625 25.527344 C 12.582031 25.527344 12.597656 25.523438 12.621094 25.523438 C 12.625 25.503906 12.628906 25.484375 12.628906 25.46875 C 12.628906 25.125 12.628906 24.78125 12.628906 24.441406 C 12.628906 24.347656 12.554688 24.25 12.46875 24.210938 C 12.445312 24.199219 12.425781 24.175781 12.402344 24.152344 C 12.636719 24.074219 12.847656 23.976562 13.007812 23.804688 C 13.164062 23.632812 13.265625 23.429688 13.277344 23.191406 C 13.285156 23.191406 13.292969 23.195312 13.304688 23.195312 C 13.308594 23.242188 13.3125 23.289062 13.3125 23.332031 C 13.3125 23.746094 13.3125 24.164062 13.3125 24.578125 C 13.3125 25.417969 13.3125 26.261719 13.3125 27.101562 C 13.3125 27.144531 13.308594 27.1875 13.308594 27.230469 L 13.265625 27.230469 C 13.234375 27.203125 13.210938 27.167969 13.175781 27.148438 C 13.027344 27.046875 12.90625 26.929688 12.835938 26.761719 C 12.796875 26.675781 12.757812 26.585938 12.722656 26.496094 C 12.703125 26.449219 12.683594 26.398438 12.675781 26.347656 C 12.660156 26.242188 12.636719 26.21875 12.53125 26.21875 C 10.121094 26.21875 7.710938 26.21875 5.296875 26.21875 C 5.265625 26.21875 5.230469 26.210938 5.195312 26.207031 Z M 5.195312 25.371094 "/><path style=" stroke:none;fill-rule:nonzero;fill:#ffffff;fill-opacity:1;" d="M 15.179688 17.910156 C 15.179688 17.941406 15.179688 17.976562 15.179688 18.007812 C 15.179688 19.613281 15.179688 21.214844 15.179688 22.820312 L 15.179688 22.921875 C 15.253906 22.941406 15.320312 22.964844 15.386719 22.976562 C 15.4375 22.984375 15.441406 23.007812 15.433594 23.046875 C 15.363281 23.007812 15.3125 23.058594 15.257812 23.085938 C 15.09375 23.167969 14.945312 23.277344 14.832031 23.421875 C 14.773438 23.492188 14.71875 23.523438 14.625 23.503906 C 14.585938 23.492188 14.542969 23.5 14.488281 23.496094 C 14.488281 23.453125 14.488281 23.410156 14.488281 23.375 C 14.488281 22.023438 14.492188 20.671875 14.484375 19.324219 C 14.484375 19.226562 14.464844 19.128906 14.433594 19.039062 C 14.421875 19 14.371094 18.972656 14.335938 18.9375 C 14.332031 18.941406 14.324219 18.945312 14.316406 18.949219 C 14.316406 18.925781 14.316406 18.898438 14.316406 18.890625 C 14.441406 18.855469 14.558594 18.820312 14.667969 18.777344 C 14.800781 18.726562 14.902344 18.632812 14.960938 18.5 C 14.992188 18.421875 15.015625 18.335938 15.039062 18.253906 C 15.066406 18.179688 15.09375 18.109375 15.117188 18.03125 C 15.128906 17.992188 15.125 17.953125 15.128906 17.914062 Z M 15.179688 17.910156 "/><path style=" stroke:none;fill-rule:nonzero;fill:#ffffff;fill-opacity:1;" d="M 15.433594 23.046875 C 15.503906 23.011719 15.570312 22.972656 15.644531 22.949219 C 15.6875 22.933594 15.683594 22.90625 15.683594 22.871094 C 15.683594 22.683594 15.679688 22.496094 15.679688 22.304688 C 15.679688 20.941406 15.679688 19.578125 15.679688 18.210938 C 15.679688 18.15625 15.6875 18.105469 15.6875 18.046875 C 15.695312 18.046875 15.703125 18.046875 15.710938 18.046875 C 15.726562 18.117188 15.75 18.183594 15.761719 18.253906 C 15.804688 18.445312 15.894531 18.609375 16.046875 18.71875 C 16.183594 18.820312 16.347656 18.882812 16.53125 18.863281 C 16.578125 18.859375 16.621094 18.867188 16.667969 18.871094 C 16.667969 18.878906 16.667969 18.886719 16.667969 18.894531 C 16.65625 18.898438 16.644531 18.902344 16.632812 18.902344 C 16.492188 18.910156 16.375 19.027344 16.367188 19.171875 C 16.367188 19.214844 16.367188 19.261719 16.367188 19.308594 C 16.367188 20.667969 16.367188 22.027344 16.367188 23.386719 C 16.367188 23.492188 16.367188 23.496094 16.257812 23.492188 C 16.078125 23.492188 15.910156 23.53125 15.753906 23.613281 C 15.644531 23.667969 15.53125 23.71875 15.429688 23.78125 C 15.332031 23.839844 15.265625 23.917969 15.210938 24.023438 C 15.15625 24.125 15.175781 24.21875 15.183594 24.3125 C 15.1875 24.363281 15.253906 24.40625 15.296875 24.460938 C 15.25 24.476562 15.207031 24.496094 15.15625 24.507812 C 15.082031 24.527344 15.003906 24.527344 14.941406 24.5625 C 14.851562 24.609375 14.773438 24.683594 14.691406 24.746094 C 14.664062 24.761719 14.644531 24.789062 14.613281 24.734375 C 14.53125 24.578125 14.496094 24.417969 14.492188 24.242188 C 14.488281 24.050781 14.539062 23.875 14.628906 23.714844 C 14.679688 23.617188 14.761719 23.53125 14.839844 23.457031 C 14.933594 23.367188 15.039062 23.292969 15.144531 23.222656 C 15.242188 23.160156 15.339844 23.105469 15.433594 23.046875 "/><path style=" stroke:none;fill-rule:nonzero;fill:#ffffff;fill-opacity:1;" d="M 12.894531 22.898438 C 12.902344 23.007812 12.855469 23.082031 12.765625 23.136719 C 12.636719 23.214844 12.429688 23.132812 12.410156 22.988281 C 12.402344 22.9375 12.402344 22.882812 12.402344 22.832031 C 12.414062 22.726562 12.476562 22.660156 12.582031 22.644531 C 12.699219 22.628906 12.800781 22.652344 12.863281 22.769531 C 12.882812 22.808594 12.882812 22.855469 12.894531 22.898438 "/><path style=" stroke:none;fill-rule:nonzero;fill:#ffffff;fill-opacity:1;" d="M 20.167969 27.226562 C 20.175781 27.335938 20.128906 27.410156 20.035156 27.464844 C 19.910156 27.542969 19.703125 27.460938 19.679688 27.316406 C 19.675781 27.261719 19.675781 27.210938 19.675781 27.160156 C 19.683594 27.054688 19.75 26.988281 19.851562 26.972656 C 19.972656 26.957031 20.074219 26.980469 20.132812 27.097656 C 20.15625 27.132812 20.160156 27.183594 20.167969 27.226562 "/><path style=" stroke:none;fill-rule:nonzero;fill:#ffffff;fill-opacity:1;" d="M 19.507812 27.226562 C 19.515625 27.335938 19.46875 27.410156 19.378906 27.464844 C 19.25 27.542969 19.042969 27.460938 19.023438 27.316406 C 19.015625 27.261719 19.015625 27.210938 19.015625 27.160156 C 19.027344 27.054688 19.089844 26.988281 19.195312 26.972656 C 19.3125 26.957031 19.414062 26.980469 19.476562 27.097656 C 19.496094 27.132812 19.496094 27.183594 19.507812 27.226562 "/><path style=" stroke:none;fill-rule:nonzero;fill:#ffffff;fill-opacity:1;" d="M 6.957031 21.40625 C 6.964844 21.511719 6.917969 21.585938 6.824219 21.644531 C 6.699219 21.71875 6.492188 21.636719 6.46875 21.492188 C 6.464844 21.441406 6.464844 21.390625 6.464844 21.335938 C 6.472656 21.234375 6.539062 21.164062 6.640625 21.152344 C 6.761719 21.136719 6.867188 21.15625 6.921875 21.273438 C 6.945312 21.3125 6.949219 21.363281 6.957031 21.40625 "/><path style=" stroke:none;fill-rule:nonzero;fill:#ffffff;fill-opacity:1;" d="M 6.296875 21.40625 C 6.304688 21.511719 6.257812 21.585938 6.167969 21.644531 C 6.039062 21.71875 5.832031 21.636719 5.8125 21.492188 C 5.804688 21.441406 5.804688 21.390625 5.804688 21.335938 C 5.816406 21.234375 5.878906 21.164062 5.984375 21.152344 C 6.101562 21.136719 6.207031 21.15625 6.265625 21.273438 C 6.285156 21.3125 6.289062 21.363281 6.296875 21.40625 "/><path style=" stroke:none;fill-rule:nonzero;fill:#ffffff;fill-opacity:1;" d="M 22.75 6.671875 C 22.652344 6.375 22.453125 6.144531 22.253906 5.886719 C 22.3125 6.226562 22.523438 6.453125 22.75 6.671875 M 23.625 5.171875 L 23.640625 5.15625 C 23.597656 5.132812 23.558594 5.105469 23.515625 5.085938 C 23.445312 5.050781 23.375 5.023438 23.304688 4.992188 C 23.21875 4.949219 23.128906 4.902344 23.039062 4.867188 C 22.960938 4.832031 22.882812 4.808594 22.804688 4.78125 C 22.699219 4.742188 22.605469 4.65625 22.480469 4.746094 C 22.398438 4.800781 22.304688 4.839844 22.21875 4.886719 C 22.285156 4.902344 22.34375 4.902344 22.40625 4.914062 C 22.476562 4.921875 22.542969 4.945312 22.613281 4.957031 C 22.722656 4.972656 22.832031 4.984375 22.9375 5.003906 C 23.007812 5.015625 23.078125 5.023438 23.144531 5.039062 C 23.230469 5.0625 23.316406 5.09375 23.40625 5.121094 C 23.476562 5.136719 23.554688 5.152344 23.625 5.171875 M 21.109375 9.089844 C 21.121094 9.089844 21.128906 9.09375 21.136719 9.097656 C 21.183594 9.007812 21.234375 8.917969 21.277344 8.828125 C 21.320312 8.738281 21.363281 8.648438 21.40625 8.558594 C 21.445312 8.464844 21.480469 8.367188 21.519531 8.269531 C 21.550781 8.183594 21.578125 8.09375 21.609375 8.003906 C 21.632812 7.941406 21.664062 7.882812 21.6875 7.816406 C 21.707031 7.761719 21.722656 7.707031 21.742188 7.648438 C 21.757812 7.597656 21.769531 7.542969 21.785156 7.492188 C 21.738281 7.546875 21.703125 7.605469 21.667969 7.664062 C 21.59375 7.789062 21.527344 7.917969 21.449219 8.039062 C 21.371094 8.152344 21.28125 8.257812 21.199219 8.375 C 21.167969 8.425781 21.121094 8.480469 21.121094 8.535156 C 21.105469 8.71875 21.109375 8.902344 21.109375 9.089844 M 17.542969 0.480469 C 17.550781 0.492188 17.550781 0.507812 17.558594 0.511719 C 17.65625 0.53125 17.757812 0.546875 17.855469 0.570312 C 17.925781 0.589844 17.992188 0.621094 18.0625 0.644531 C 18.113281 0.664062 18.164062 0.679688 18.21875 0.699219 C 18.34375 0.742188 18.46875 0.789062 18.585938 0.863281 C 18.691406 0.929688 18.8125 0.972656 18.917969 1.042969 C 19.046875 1.132812 19.171875 1.230469 19.292969 1.332031 C 19.40625 1.425781 19.511719 1.523438 19.617188 1.625 C 19.707031 1.710938 19.792969 1.800781 19.867188 1.898438 C 19.976562 2.035156 20.078125 2.179688 20.171875 2.324219 C 20.242188 2.433594 20.285156 2.5625 20.355469 2.671875 C 20.429688 2.789062 20.472656 2.917969 20.519531 3.046875 C 20.574219 3.179688 20.625 3.308594 20.652344 3.449219 C 20.667969 3.542969 20.703125 3.636719 20.738281 3.75 C 20.746094 3.710938 20.753906 3.6875 20.753906 3.664062 C 20.769531 3.484375 20.820312 3.308594 20.875 3.132812 C 20.894531 3.070312 20.902344 3 20.929688 2.9375 C 20.988281 2.804688 21.050781 2.675781 21.121094 2.546875 C 21.191406 2.417969 21.265625 2.289062 21.351562 2.167969 C 21.429688 2.0625 21.519531 1.964844 21.617188 1.875 C 21.75 1.75 21.890625 1.628906 22.035156 1.511719 C 22.121094 1.445312 22.21875 1.390625 22.316406 1.335938 C 22.429688 1.269531 22.539062 1.199219 22.65625 1.132812 C 22.707031 1.109375 22.761719 1.097656 22.8125 1.078125 C 22.875 1.054688 22.9375 1.027344 23.003906 1.003906 C 23.050781 0.984375 23.101562 0.960938 23.152344 0.957031 C 23.316406 0.929688 23.476562 0.890625 23.644531 0.914062 C 23.753906 0.925781 23.871094 0.914062 23.980469 0.914062 C 23.984375 0.921875 23.992188 0.929688 23.996094 0.9375 C 23.972656 0.960938 23.953125 0.992188 23.921875 1.003906 C 23.867188 1.027344 23.800781 1.039062 23.742188 1.058594 C 23.667969 1.082031 23.585938 1.105469 23.511719 1.140625 C 23.386719 1.191406 23.265625 1.253906 23.144531 1.320312 C 23.3125 1.339844 23.488281 1.3125 23.660156 1.414062 C 23.285156 1.503906 22.945312 1.660156 22.609375 1.835938 C 22.832031 1.824219 23.050781 1.808594 23.273438 1.796875 C 23.277344 1.808594 23.277344 1.820312 23.285156 1.832031 C 23.109375 1.90625 22.933594 1.976562 22.761719 2.054688 C 22.582031 2.132812 22.40625 2.214844 22.210938 2.304688 C 22.269531 2.304688 22.308594 2.308594 22.34375 2.304688 C 22.464844 2.289062 22.582031 2.265625 22.703125 2.25 C 22.773438 2.242188 22.847656 2.25 22.917969 2.253906 C 22.933594 2.253906 22.949219 2.277344 22.964844 2.289062 C 22.949219 2.296875 22.9375 2.316406 22.917969 2.324219 C 22.835938 2.363281 22.75 2.394531 22.667969 2.433594 C 22.625 2.453125 22.585938 2.46875 22.542969 2.492188 C 22.421875 2.558594 22.296875 2.628906 22.171875 2.695312 C 22.113281 2.730469 22.058594 2.765625 22.003906 2.8125 C 22.269531 2.75 22.523438 2.644531 22.808594 2.714844 C 22.796875 2.730469 22.792969 2.742188 22.78125 2.746094 C 22.601562 2.777344 22.445312 2.867188 22.285156 2.953125 C 22.171875 3.015625 22.054688 3.066406 21.945312 3.132812 C 21.886719 3.167969 21.847656 3.230469 21.804688 3.273438 C 21.847656 3.261719 21.898438 3.253906 21.945312 3.230469 C 22.140625 3.144531 22.34375 3.152344 22.542969 3.160156 C 22.558594 3.160156 22.570312 3.179688 22.585938 3.1875 C 22.570312 3.195312 22.558594 3.203125 22.542969 3.210938 C 22.453125 3.246094 22.363281 3.285156 22.273438 3.316406 C 22.214844 3.339844 22.15625 3.355469 22.101562 3.378906 C 22.023438 3.410156 21.949219 3.445312 21.875 3.480469 C 21.8125 3.515625 21.746094 3.550781 21.679688 3.589844 C 21.667969 3.597656 21.660156 3.617188 21.640625 3.640625 C 21.757812 3.617188 21.859375 3.613281 21.945312 3.570312 C 22.054688 3.519531 22.167969 3.542969 22.277344 3.539062 C 22.296875 3.539062 22.316406 3.550781 22.335938 3.554688 C 22.320312 3.566406 22.308594 3.578125 22.289062 3.589844 C 22.214844 3.640625 22.136719 3.691406 22.058594 3.742188 C 22.039062 3.753906 22.011719 3.761719 21.992188 3.773438 C 21.992188 3.78125 21.996094 3.792969 22 3.796875 C 22.027344 3.792969 22.0625 3.792969 22.089844 3.78125 C 22.183594 3.742188 22.273438 3.699219 22.367188 3.660156 C 22.464844 3.621094 22.566406 3.578125 22.667969 3.542969 C 22.738281 3.523438 22.808594 3.507812 22.878906 3.488281 C 22.960938 3.464844 23.042969 3.441406 23.125 3.414062 C 23.140625 3.410156 23.160156 3.410156 23.175781 3.40625 C 23.308594 3.390625 23.441406 3.390625 23.566406 3.355469 C 23.757812 3.300781 23.953125 3.320312 24.144531 3.3125 C 24.277344 3.308594 24.40625 3.308594 24.53125 3.324219 C 24.640625 3.335938 24.746094 3.363281 24.851562 3.386719 C 24.921875 3.40625 24.988281 3.429688 25.058594 3.4375 C 25.191406 3.457031 25.304688 3.53125 25.429688 3.5625 C 25.550781 3.59375 25.648438 3.65625 25.753906 3.699219 C 25.894531 3.761719 26.027344 3.84375 26.160156 3.921875 C 26.257812 3.980469 26.351562 4.050781 26.445312 4.117188 C 26.492188 4.148438 26.539062 4.183594 26.582031 4.21875 C 26.695312 4.316406 26.8125 4.410156 26.917969 4.511719 C 26.992188 4.582031 27.054688 4.660156 27.117188 4.742188 C 27.222656 4.882812 27.316406 5.027344 27.421875 5.171875 C 27.441406 5.199219 27.457031 5.230469 27.464844 5.265625 C 27.089844 5.003906 26.707031 4.753906 26.289062 4.570312 C 26.410156 4.765625 26.578125 4.925781 26.671875 5.140625 C 26.664062 5.144531 26.660156 5.148438 26.652344 5.152344 C 26.449219 5.015625 26.253906 4.878906 26.046875 4.746094 C 25.839844 4.617188 25.625 4.503906 25.402344 4.394531 C 25.582031 4.632812 25.804688 4.832031 25.9375 5.097656 C 25.710938 4.972656 25.523438 4.800781 25.296875 4.683594 C 25.066406 4.5625 24.859375 4.398438 24.59375 4.347656 C 24.84375 4.574219 25.050781 4.828125 25.238281 5.097656 C 25.230469 5.109375 25.226562 5.117188 25.214844 5.125 C 25.148438 5.089844 25.078125 5.058594 25.011719 5.019531 C 24.945312 4.980469 24.878906 4.933594 24.816406 4.890625 C 24.734375 4.839844 24.65625 4.78125 24.574219 4.730469 C 24.535156 4.710938 24.492188 4.707031 24.457031 4.6875 C 24.335938 4.625 24.214844 4.550781 24.09375 4.488281 C 24.035156 4.460938 23.96875 4.445312 23.898438 4.433594 C 24.179688 4.6875 24.453125 4.9375 24.632812 5.277344 C 24.179688 5.003906 23.730469 4.734375 23.222656 4.53125 C 23.304688 4.605469 23.375 4.671875 23.445312 4.738281 C 23.515625 4.808594 23.589844 4.878906 23.660156 4.957031 C 23.722656 5.027344 23.777344 5.109375 23.847656 5.199219 L 23.730469 5.199219 C 23.855469 5.261719 23.964844 5.300781 24.0625 5.355469 C 24.164062 5.414062 24.25 5.484375 24.347656 5.546875 C 24.464844 5.625 24.582031 5.695312 24.699219 5.777344 C 24.789062 5.84375 24.863281 5.921875 24.949219 5.984375 C 25.089844 6.082031 25.210938 6.195312 25.320312 6.324219 C 25.394531 6.410156 25.460938 6.5 25.53125 6.589844 C 25.597656 6.671875 25.667969 6.753906 25.726562 6.84375 C 25.777344 6.921875 25.820312 7.003906 25.863281 7.082031 C 25.898438 7.152344 25.933594 7.222656 25.964844 7.292969 C 26.003906 7.375 26.039062 7.457031 26.078125 7.539062 C 26.105469 7.601562 26.132812 7.664062 26.15625 7.730469 C 26.175781 7.789062 26.1875 7.855469 26.207031 7.914062 C 26.230469 7.992188 26.253906 8.066406 26.277344 8.140625 C 26.277344 8.148438 26.285156 8.15625 26.285156 8.164062 C 26.296875 8.269531 26.304688 8.378906 26.320312 8.484375 C 26.332031 8.546875 26.347656 8.605469 26.363281 8.667969 C 26.363281 8.675781 26.363281 8.683594 26.363281 8.691406 C 26.367188 8.949219 26.4375 9.203125 26.410156 9.464844 C 26.410156 9.484375 26.402344 9.503906 26.394531 9.527344 C 26.390625 9.527344 26.382812 9.523438 26.378906 9.523438 C 26.375 9.511719 26.367188 9.503906 26.367188 9.492188 C 26.351562 9.410156 26.335938 9.328125 26.277344 9.261719 C 26.25 9.230469 26.242188 9.183594 26.226562 9.140625 C 26.1875 9.039062 26.148438 8.9375 26.109375 8.835938 C 26.089844 8.777344 26.074219 8.714844 26.054688 8.660156 C 26.046875 8.632812 26.027344 8.613281 26.019531 8.589844 C 25.992188 8.507812 25.960938 8.429688 25.933594 8.351562 C 25.914062 8.300781 25.902344 8.253906 25.882812 8.207031 C 25.878906 8.195312 25.859375 8.183594 25.855469 8.183594 C 25.839844 8.191406 25.824219 8.207031 25.824219 8.21875 C 25.820312 8.300781 25.8125 8.382812 25.8125 8.46875 C 25.808594 8.601562 25.8125 8.734375 25.8125 8.867188 C 25.8125 8.902344 25.808594 8.933594 25.800781 8.96875 C 25.796875 8.96875 25.789062 8.972656 25.785156 8.972656 C 25.617188 8.535156 25.449219 8.101562 25.277344 7.660156 C 25.222656 7.808594 25.324219 7.9375 25.308594 8.078125 C 25.296875 8.214844 25.304688 8.359375 25.304688 8.503906 C 25.289062 8.5 25.273438 8.5 25.269531 8.496094 C 25.253906 8.4375 25.234375 8.382812 25.214844 8.324219 C 25.199219 8.277344 25.1875 8.222656 25.164062 8.175781 C 25.113281 8.066406 25.050781 7.964844 25.003906 7.855469 C 24.964844 7.765625 24.941406 7.671875 24.90625 7.582031 C 24.875 7.503906 24.828125 7.429688 24.792969 7.351562 C 24.773438 7.304688 24.761719 7.257812 24.742188 7.210938 C 24.707031 7.136719 24.671875 7.066406 24.636719 6.996094 C 24.632812 6.984375 24.609375 6.980469 24.582031 6.984375 C 24.59375 7.019531 24.609375 7.054688 24.617188 7.089844 C 24.625 7.117188 24.632812 7.148438 24.632812 7.175781 C 24.636719 7.265625 24.632812 7.351562 24.644531 7.4375 C 24.660156 7.628906 24.683594 7.824219 24.703125 8.011719 C 24.707031 8.03125 24.703125 8.054688 24.6875 8.082031 C 24.667969 8.054688 24.644531 8.027344 24.632812 7.996094 C 24.609375 7.945312 24.601562 7.890625 24.578125 7.84375 C 24.554688 7.796875 24.523438 7.75 24.5 7.699219 C 24.464844 7.628906 24.433594 7.550781 24.398438 7.480469 C 24.359375 7.394531 24.316406 7.316406 24.277344 7.230469 C 24.234375 7.128906 24.195312 7.023438 24.144531 6.921875 C 24.09375 6.8125 24.035156 6.710938 23.964844 6.613281 C 23.980469 6.667969 23.984375 6.71875 24.003906 6.769531 C 24.050781 6.894531 24.058594 7.023438 24.089844 7.152344 C 24.140625 7.359375 24.09375 7.558594 24.113281 7.761719 C 24.113281 7.769531 24.109375 7.777344 24.101562 7.789062 C 24.09375 7.78125 24.078125 7.777344 24.070312 7.773438 C 24.027344 7.652344 23.988281 7.527344 23.941406 7.410156 C 23.910156 7.328125 23.863281 7.253906 23.824219 7.175781 C 23.761719 7.0625 23.695312 6.953125 23.648438 6.835938 C 23.589844 6.6875 23.519531 6.546875 23.433594 6.414062 C 23.414062 6.378906 23.398438 6.34375 23.363281 6.316406 C 23.378906 6.40625 23.398438 6.496094 23.414062 6.585938 C 23.421875 6.632812 23.425781 6.679688 23.441406 6.722656 C 23.503906 6.898438 23.464844 7.082031 23.492188 7.261719 C 23.5 7.3125 23.515625 7.363281 23.519531 7.417969 C 23.523438 7.4375 23.511719 7.460938 23.503906 7.5 C 23.335938 7.007812 23.066406 6.59375 22.878906 6.136719 C 22.867188 6.140625 22.855469 6.144531 22.847656 6.148438 C 22.863281 6.214844 22.882812 6.28125 22.90625 6.351562 C 22.925781 6.410156 22.960938 6.464844 22.96875 6.523438 C 22.992188 6.652344 23 6.78125 23.015625 6.910156 C 23.019531 6.945312 23.035156 6.980469 23.046875 7.011719 C 23.050781 7.03125 23.0625 7.046875 23.058594 7.0625 C 23.035156 7.1875 23.128906 7.277344 23.167969 7.382812 C 23.199219 7.472656 23.238281 7.558594 23.277344 7.644531 C 23.316406 7.730469 23.355469 7.820312 23.390625 7.910156 C 23.414062 7.960938 23.425781 8.011719 23.4375 8.066406 C 23.457031 8.144531 23.460938 8.230469 23.488281 8.3125 C 23.535156 8.460938 23.511719 8.617188 23.546875 8.765625 C 23.574219 8.894531 23.570312 9.019531 23.566406 9.148438 C 23.5625 9.316406 23.546875 9.484375 23.523438 9.652344 C 23.511719 9.757812 23.472656 9.863281 23.449219 9.96875 C 23.433594 10.046875 23.421875 10.128906 23.402344 10.207031 C 23.382812 10.289062 23.351562 10.371094 23.328125 10.453125 C 23.308594 10.511719 23.292969 10.566406 23.277344 10.628906 C 23.261719 10.683594 23.25 10.742188 23.226562 10.800781 C 23.175781 10.921875 23.125 11.042969 23.074219 11.160156 C 23.015625 11.285156 22.960938 11.414062 22.898438 11.535156 C 22.800781 11.710938 22.699219 11.890625 22.585938 12.0625 C 22.523438 12.160156 22.441406 12.25 22.363281 12.339844 C 22.242188 12.480469 22.121094 12.621094 22 12.761719 C 21.992188 12.769531 21.992188 12.785156 21.988281 12.796875 L 21.867188 12.796875 C 21.886719 12.746094 21.902344 12.695312 21.925781 12.648438 C 21.988281 12.527344 22.058594 12.410156 22.121094 12.289062 C 22.214844 12.105469 22.3125 11.921875 22.398438 11.738281 C 22.429688 11.671875 22.445312 11.59375 22.46875 11.515625 C 22.363281 11.507812 22.328125 11.578125 22.289062 11.625 C 22.140625 11.808594 21.96875 11.964844 21.785156 12.109375 C 21.777344 12.117188 21.757812 12.117188 21.75 12.109375 C 21.746094 12.105469 21.742188 12.085938 21.746094 12.078125 C 21.773438 12.023438 21.796875 11.964844 21.828125 11.914062 C 21.867188 11.839844 21.914062 11.769531 21.949219 11.695312 C 22.027344 11.550781 22.101562 11.40625 22.171875 11.257812 C 22.226562 11.148438 22.277344 11.035156 22.328125 10.925781 C 22.351562 10.875 22.378906 10.820312 22.398438 10.769531 C 22.421875 10.707031 22.441406 10.636719 22.464844 10.574219 C 22.410156 10.605469 22.367188 10.636719 22.335938 10.679688 C 22.207031 10.835938 22.082031 11 21.953125 11.15625 C 21.90625 11.210938 21.863281 11.273438 21.773438 11.285156 C 21.777344 11.253906 21.777344 11.230469 21.785156 11.214844 C 21.828125 11.117188 21.875 11.019531 21.917969 10.925781 C 21.933594 10.890625 21.949219 10.855469 21.96875 10.816406 C 22 10.734375 22.039062 10.648438 22.070312 10.566406 C 22.105469 10.484375 22.140625 10.402344 22.171875 10.320312 C 22.210938 10.234375 22.246094 10.148438 22.28125 10.054688 C 22.308594 9.980469 22.332031 9.90625 22.355469 9.824219 C 22.378906 9.757812 22.394531 9.691406 22.410156 9.625 C 22.140625 9.953125 21.871094 10.277344 21.601562 10.601562 C 21.589844 10.597656 21.578125 10.59375 21.566406 10.589844 C 21.566406 10.5625 21.558594 10.53125 21.570312 10.507812 C 21.609375 10.425781 21.65625 10.347656 21.699219 10.265625 C 21.738281 10.179688 21.773438 10.089844 21.8125 10 C 21.828125 9.953125 21.847656 9.910156 21.863281 9.863281 C 21.882812 9.808594 21.886719 9.75 21.910156 9.699219 C 21.957031 9.589844 22.015625 9.480469 22.066406 9.371094 C 22.085938 9.332031 22.097656 9.292969 22.113281 9.253906 C 22.136719 9.195312 22.160156 9.136719 22.179688 9.074219 C 22.203125 9.007812 22.222656 8.9375 22.242188 8.871094 C 22.238281 8.867188 22.226562 8.863281 22.21875 8.859375 C 21.976562 9.21875 21.652344 9.503906 21.367188 9.828125 C 21.359375 9.800781 21.347656 9.777344 21.355469 9.761719 C 21.382812 9.695312 21.417969 9.632812 21.449219 9.566406 C 21.492188 9.484375 21.53125 9.398438 21.566406 9.316406 C 21.597656 9.242188 21.628906 9.171875 21.660156 9.101562 C 21.699219 9.007812 21.734375 8.917969 21.773438 8.828125 C 21.792969 8.777344 21.804688 8.722656 21.828125 8.671875 C 21.847656 8.613281 21.878906 8.554688 21.902344 8.496094 C 21.925781 8.4375 21.949219 8.382812 21.96875 8.320312 C 21.988281 8.246094 22.003906 8.167969 22.023438 8.09375 C 22.015625 8.089844 22.011719 8.085938 22.003906 8.082031 C 21.976562 8.121094 21.945312 8.160156 21.917969 8.199219 C 21.847656 8.292969 21.785156 8.390625 21.714844 8.476562 C 21.628906 8.578125 21.535156 8.675781 21.449219 8.777344 C 21.363281 8.875 21.285156 8.972656 21.207031 9.070312 C 21.152344 9.136719 21.105469 9.207031 21.113281 9.304688 C 21.136719 9.558594 21.144531 9.8125 21.152344 10.066406 C 21.167969 10.542969 21.183594 11.015625 21.195312 11.488281 C 21.195312 11.609375 21.195312 11.730469 21.199219 11.851562 C 21.203125 12.089844 21.210938 12.332031 21.21875 12.574219 C 21.222656 12.648438 21.226562 12.722656 21.234375 12.796875 L 20.300781 12.796875 C 20.324219 12.65625 20.347656 12.515625 20.375 12.375 C 20.378906 12.34375 20.382812 12.308594 20.386719 12.277344 C 20.402344 12.09375 20.417969 11.910156 20.433594 11.726562 C 20.445312 11.574219 20.441406 11.417969 20.472656 11.269531 C 20.519531 11.082031 20.476562 10.886719 20.515625 10.703125 C 20.574219 10.449219 20.53125 10.191406 20.558594 9.9375 C 20.636719 9.074219 20.597656 8.214844 20.585938 7.351562 C 20.582031 7.152344 20.570312 6.957031 20.546875 6.757812 C 20.542969 6.691406 20.5 6.628906 20.472656 6.5625 C 20.441406 6.488281 20.40625 6.414062 20.375 6.339844 C 20.355469 6.292969 20.339844 6.242188 20.320312 6.191406 C 20.3125 6.191406 20.304688 6.191406 20.296875 6.195312 C 20.300781 6.304688 20.304688 6.417969 20.316406 6.527344 C 20.320312 6.59375 20.339844 6.660156 20.339844 6.726562 C 20.34375 6.832031 20.335938 6.9375 20.34375 7.042969 C 20.347656 7.109375 20.371094 7.167969 20.378906 7.234375 C 20.386719 7.316406 20.386719 7.394531 20.390625 7.488281 C 20.371094 7.480469 20.34375 7.476562 20.335938 7.464844 C 20.296875 7.394531 20.261719 7.320312 20.230469 7.25 C 20.21875 7.21875 20.207031 7.1875 20.207031 7.152344 C 20.203125 6.742188 20.207031 6.335938 20.207031 5.917969 L 20.109375 5.917969 C 18.984375 5.917969 17.863281 5.917969 16.738281 5.917969 C 16.707031 5.917969 16.675781 5.90625 16.644531 5.898438 C 16.664062 5.878906 16.6875 5.851562 16.714844 5.835938 C 16.816406 5.765625 16.917969 5.6875 17.027344 5.621094 C 17.140625 5.554688 17.261719 5.496094 17.382812 5.4375 C 17.492188 5.382812 17.601562 5.324219 17.710938 5.277344 C 17.800781 5.242188 17.894531 5.21875 17.984375 5.1875 C 18.0625 5.160156 18.140625 5.128906 18.21875 5.109375 C 18.300781 5.085938 18.386719 5.074219 18.46875 5.058594 C 18.589844 5.035156 18.710938 5.011719 18.832031 4.988281 C 18.84375 4.984375 18.859375 4.984375 18.871094 4.984375 C 19.203125 4.976562 19.535156 4.914062 19.867188 4.9375 C 19.894531 4.941406 19.921875 4.933594 19.949219 4.929688 L 19.953125 4.910156 C 19.863281 4.863281 19.777344 4.8125 19.6875 4.773438 C 19.625 4.742188 19.558594 4.71875 19.492188 4.699219 C 19.464844 4.6875 19.429688 4.683594 19.398438 4.683594 C 19.316406 4.683594 19.238281 4.683594 19.15625 4.683594 C 19.09375 4.6875 19.023438 4.664062 18.972656 4.726562 C 18.96875 4.730469 18.953125 4.730469 18.941406 4.730469 C 18.785156 4.734375 18.640625 4.800781 18.492188 4.847656 C 18.386719 4.882812 18.28125 4.910156 18.179688 4.945312 C 18.089844 4.980469 18.003906 5.027344 17.910156 5.058594 C 17.871094 5.074219 17.824219 5.070312 17.769531 5.058594 C 18.011719 4.882812 18.253906 4.710938 18.503906 4.535156 C 18.496094 4.53125 18.488281 4.523438 18.480469 4.527344 C 18.414062 4.546875 18.347656 4.574219 18.28125 4.597656 C 18.238281 4.609375 18.191406 4.617188 18.148438 4.628906 C 18.039062 4.660156 17.933594 4.695312 17.832031 4.730469 C 17.75 4.761719 17.667969 4.800781 17.585938 4.835938 C 17.511719 4.867188 17.441406 4.890625 17.367188 4.917969 C 17.359375 4.914062 17.355469 4.90625 17.347656 4.902344 C 17.359375 4.878906 17.367188 4.855469 17.382812 4.835938 C 17.515625 4.699219 17.652344 4.570312 17.8125 4.460938 C 17.867188 4.425781 17.910156 4.375 17.953125 4.328125 C 17.953125 4.320312 17.949219 4.3125 17.945312 4.304688 C 17.914062 4.316406 17.886719 4.332031 17.855469 4.34375 C 17.8125 4.359375 17.769531 4.378906 17.722656 4.394531 C 17.617188 4.425781 17.507812 4.441406 17.402344 4.476562 C 17.273438 4.523438 17.152344 4.585938 17.023438 4.632812 C 16.964844 4.65625 16.90625 4.667969 16.851562 4.6875 C 16.800781 4.703125 16.757812 4.738281 16.707031 4.757812 C 16.6875 4.765625 16.664062 4.765625 16.640625 4.765625 C 16.652344 4.753906 16.664062 4.738281 16.675781 4.722656 C 16.761719 4.628906 16.847656 4.527344 16.941406 4.4375 C 17.03125 4.355469 17.132812 4.277344 17.242188 4.1875 C 17.199219 4.1875 17.179688 4.179688 17.164062 4.183594 C 17.0625 4.207031 16.964844 4.234375 16.863281 4.257812 C 16.851562 4.261719 16.839844 4.257812 16.828125 4.261719 C 16.75 4.285156 16.675781 4.304688 16.597656 4.332031 C 16.507812 4.359375 16.421875 4.390625 16.335938 4.425781 C 16.25 4.460938 16.167969 4.507812 16.085938 4.542969 C 16.0625 4.554688 16.035156 4.554688 16.011719 4.558594 C 16.007812 4.554688 16 4.546875 16 4.539062 L 16.683594 3.949219 C 16.679688 3.941406 16.675781 3.933594 16.667969 3.925781 C 16.222656 4.121094 15.757812 4.257812 15.328125 4.488281 L 15.308594 4.460938 C 15.476562 4.285156 15.644531 4.109375 15.824219 3.921875 C 15.414062 4.097656 14.992188 4.214844 14.613281 4.441406 C 14.609375 4.433594 14.601562 4.425781 14.597656 4.421875 C 14.714844 4.289062 14.832031 4.15625 14.949219 4.023438 C 14.945312 4.019531 14.9375 4.007812 14.933594 4.003906 C 14.875 4.023438 14.8125 4.039062 14.753906 4.066406 C 14.679688 4.101562 14.605469 4.144531 14.53125 4.179688 C 14.425781 4.230469 14.316406 4.273438 14.210938 4.320312 C 14.128906 4.355469 14.050781 4.390625 13.972656 4.425781 C 13.929688 4.445312 13.894531 4.484375 13.84375 4.46875 C 13.84375 4.457031 13.839844 4.441406 13.847656 4.433594 C 13.910156 4.363281 13.976562 4.292969 14.042969 4.222656 C 14.1875 4.066406 14.335938 3.914062 14.511719 3.792969 C 14.59375 3.734375 14.667969 3.667969 14.75 3.613281 C 14.835938 3.5625 14.929688 3.511719 15.019531 3.464844 C 15.09375 3.425781 15.171875 3.390625 15.246094 3.355469 C 15.320312 3.320312 15.398438 3.289062 15.472656 3.253906 C 15.492188 3.246094 15.507812 3.230469 15.527344 3.226562 C 15.589844 3.207031 15.648438 3.1875 15.710938 3.171875 C 15.851562 3.132812 15.992188 3.089844 16.132812 3.054688 C 16.148438 3.046875 16.164062 3.050781 16.179688 3.046875 C 16.292969 3.019531 16.410156 2.976562 16.523438 2.976562 C 16.882812 2.96875 17.242188 2.929688 17.601562 3.003906 C 17.738281 3.03125 17.875 3.042969 18.007812 3.089844 C 18.089844 3.117188 18.179688 3.125 18.265625 3.144531 C 18.339844 3.160156 18.414062 3.1875 18.484375 3.214844 C 18.566406 3.242188 18.648438 3.28125 18.730469 3.308594 C 18.785156 3.328125 18.84375 3.339844 18.894531 3.367188 C 19.023438 3.429688 19.152344 3.5 19.28125 3.570312 C 19.378906 3.628906 19.480469 3.679688 19.570312 3.75 C 19.683594 3.839844 19.796875 3.9375 19.902344 4.039062 C 20.074219 4.203125 20.234375 4.367188 20.371094 4.5625 C 20.363281 4.5 20.359375 4.433594 20.332031 4.375 C 20.296875 4.285156 20.246094 4.199219 20.207031 4.113281 C 20.144531 3.984375 20.046875 3.875 19.933594 3.792969 C 19.792969 3.695312 19.636719 3.613281 19.484375 3.535156 C 19.363281 3.472656 19.238281 3.425781 19.113281 3.367188 C 19.074219 3.351562 19.039062 3.332031 18.996094 3.320312 C 18.894531 3.292969 18.792969 3.269531 18.691406 3.238281 C 18.683594 3.238281 18.679688 3.222656 18.664062 3.199219 C 18.875 3.179688 19.070312 3.164062 19.265625 3.199219 C 19.191406 3.148438 19.105469 3.132812 19.019531 3.109375 C 18.933594 3.082031 18.855469 3.039062 18.769531 3.011719 C 18.683594 2.980469 18.589844 2.960938 18.503906 2.9375 C 18.421875 2.914062 18.339844 2.890625 18.25 2.871094 C 18.398438 2.847656 18.53125 2.820312 18.667969 2.804688 C 18.789062 2.792969 18.914062 2.800781 19.039062 2.800781 C 19.09375 2.800781 19.144531 2.800781 19.207031 2.800781 C 18.828125 2.632812 18.449219 2.488281 18.027344 2.410156 C 18.117188 2.351562 18.207031 2.34375 18.292969 2.335938 C 18.386719 2.324219 18.476562 2.304688 18.570312 2.296875 C 18.65625 2.289062 18.746094 2.292969 18.839844 2.292969 C 18.769531 2.257812 18.699219 2.242188 18.628906 2.21875 C 18.527344 2.179688 18.429688 2.132812 18.328125 2.097656 C 18.265625 2.074219 18.203125 2.066406 18.140625 2.042969 C 18.027344 1.996094 17.921875 1.957031 17.800781 1.957031 C 17.738281 1.957031 17.675781 1.957031 17.613281 1.957031 C 17.613281 1.949219 17.609375 1.9375 17.609375 1.925781 C 17.699219 1.910156 17.792969 1.886719 17.882812 1.871094 C 17.980469 1.851562 18.078125 1.828125 18.175781 1.8125 C 18.265625 1.796875 18.359375 1.785156 18.453125 1.773438 C 18.054688 1.625 17.664062 1.476562 17.242188 1.449219 C 17.242188 1.441406 17.242188 1.429688 17.246094 1.421875 C 17.453125 1.386719 17.65625 1.347656 17.878906 1.308594 C 17.738281 1.269531 17.621094 1.238281 17.5 1.199219 C 17.386719 1.160156 17.273438 1.113281 17.15625 1.070312 C 17.042969 1.027344 16.914062 1.042969 16.808594 0.976562 L 16.816406 0.957031 C 16.988281 0.933594 17.164062 0.90625 17.339844 0.878906 C 17.28125 0.851562 17.21875 0.835938 17.164062 0.816406 C 17.007812 0.761719 16.851562 0.703125 16.6875 0.691406 C 16.675781 0.691406 16.664062 0.691406 16.65625 0.6875 C 16.523438 0.660156 16.390625 0.625 16.257812 0.605469 C 16.191406 0.59375 16.125 0.601562 16.058594 0.601562 L 16.050781 0.582031 C 16.0625 0.574219 16.074219 0.5625 16.085938 0.558594 C 16.171875 0.546875 16.261719 0.535156 16.347656 0.523438 C 16.503906 0.507812 16.660156 0.496094 16.816406 0.480469 C 16.828125 0.476562 16.84375 0.46875 16.855469 0.464844 L 17.542969 0.464844 Z M 17.542969 0.480469 "/><path style=" stroke:none;fill-rule:nonzero;fill:#ffffff;fill-opacity:1;" d="M 23.640625 4.992188 C 23.570312 4.972656 23.492188 4.957031 23.421875 4.9375 C 23.332031 4.910156 23.246094 4.878906 23.160156 4.855469 C 23.089844 4.839844 23.023438 4.828125 22.953125 4.820312 C 22.847656 4.804688 22.738281 4.789062 22.628906 4.773438 C 22.558594 4.761719 22.492188 4.742188 22.421875 4.730469 C 22.359375 4.71875 22.300781 4.71875 22.234375 4.703125 C 22.324219 4.65625 22.414062 4.617188 22.496094 4.5625 C 22.621094 4.472656 22.71875 4.554688 22.824219 4.597656 C 22.898438 4.625 22.980469 4.652344 23.058594 4.683594 C 23.148438 4.71875 23.234375 4.765625 23.324219 4.808594 C 23.394531 4.839844 23.464844 4.867188 23.53125 4.902344 C 23.574219 4.921875 23.617188 4.949219 23.65625 4.972656 Z M 23.640625 4.992188 "/><path style=" stroke:none;fill-rule:nonzero;fill:#ffffff;fill-opacity:1;" d="M 13.136719 13.476562 C 13.105469 13.445312 13.082031 13.40625 13.070312 13.410156 C 13.039062 13.417969 13.015625 13.449219 12.988281 13.464844 C 13.011719 13.496094 13.035156 13.53125 13.054688 13.5625 C 13.078125 13.535156 13.105469 13.511719 13.136719 13.476562 M 16.148438 13.484375 C 16.101562 13.449219 16.082031 13.414062 16.050781 13.40625 C 16.03125 13.402344 15.980469 13.449219 15.984375 13.464844 C 15.988281 13.5 16.023438 13.53125 16.042969 13.5625 C 16.070312 13.542969 16.097656 13.519531 16.148438 13.484375 M 14.851562 13.488281 C 14.863281 13.488281 14.878906 13.488281 14.890625 13.488281 C 14.90625 13.441406 14.925781 13.394531 14.929688 13.347656 C 14.929688 13.324219 14.894531 13.300781 14.875 13.277344 C 14.851562 13.300781 14.816406 13.324219 14.816406 13.347656 C 14.816406 13.394531 14.839844 13.4375 14.851562 13.488281 M 13.109375 12.503906 C 13.117188 12.515625 13.125 12.53125 13.136719 12.535156 C 13.222656 12.585938 13.242188 12.714844 13.175781 12.789062 C 13.265625 12.796875 13.289062 12.824219 13.28125 12.90625 C 13.261719 13.050781 13.335938 13.15625 13.402344 13.269531 C 13.449219 13.351562 13.488281 13.441406 13.53125 13.523438 C 13.574219 13.601562 13.667969 13.632812 13.746094 13.597656 C 13.761719 13.589844 13.773438 13.5625 13.769531 13.546875 C 13.742188 13.488281 13.714844 13.421875 13.675781 13.367188 C 13.628906 13.292969 13.660156 13.179688 13.742188 13.136719 C 13.863281 13.070312 13.984375 13.007812 14.113281 12.941406 C 14.132812 13 14.144531 13.027344 14.101562 13.070312 C 14.03125 13.136719 14.046875 13.203125 14.109375 13.308594 C 14.167969 13.398438 14.214844 13.503906 14.269531 13.605469 C 14.308594 13.605469 14.355469 13.609375 14.398438 13.605469 C 14.421875 13.601562 14.441406 13.578125 14.464844 13.566406 C 14.449219 13.542969 14.4375 13.515625 14.414062 13.496094 C 14.402344 13.488281 14.371094 13.492188 14.355469 13.5 C 14.324219 13.507812 14.296875 13.527344 14.253906 13.550781 C 14.253906 13.417969 14.238281 13.304688 14.257812 13.199219 C 14.273438 13.117188 14.34375 13.054688 14.433594 13.011719 C 14.578125 12.945312 14.726562 12.929688 14.878906 12.929688 C 15.011719 12.929688 15.132812 12.964844 15.257812 13 C 15.292969 13.007812 15.347656 12.980469 15.382812 12.953125 C 15.433594 12.917969 15.445312 12.9375 15.445312 12.984375 C 15.445312 13.101562 15.457031 13.21875 15.441406 13.332031 C 15.425781 13.417969 15.390625 13.507812 15.300781 13.550781 C 15.339844 13.601562 15.476562 13.628906 15.53125 13.601562 C 15.542969 13.59375 15.554688 13.578125 15.554688 13.570312 C 15.53125 13.375 15.671875 13.265625 15.789062 13.148438 C 15.894531 13.035156 16.007812 12.925781 16.113281 12.816406 C 16.148438 12.78125 16.1875 12.753906 16.234375 12.710938 C 16.242188 12.78125 16.332031 12.808594 16.269531 12.890625 C 16.25 12.914062 16.28125 12.988281 16.304688 13.03125 C 16.382812 13.183594 16.464844 13.335938 16.546875 13.492188 C 16.550781 13.503906 16.550781 13.519531 16.554688 13.535156 C 16.574219 13.578125 16.59375 13.613281 16.65625 13.609375 C 16.816406 13.605469 16.972656 13.609375 17.132812 13.609375 C 17.15625 13.609375 17.175781 13.605469 17.21875 13.601562 C 17.128906 13.519531 17.046875 13.449219 16.972656 13.378906 C 16.875 13.292969 16.78125 13.195312 16.679688 13.109375 C 16.605469 13.046875 16.5625 13.050781 16.476562 13.109375 C 16.449219 13.058594 16.429688 13.011719 16.492188 12.96875 C 16.554688 12.921875 16.613281 12.863281 16.675781 12.816406 C 16.722656 12.78125 16.902344 12.796875 16.945312 12.835938 C 17.058594 12.9375 17.167969 13.042969 17.28125 13.148438 C 17.378906 13.242188 17.472656 13.351562 17.582031 13.433594 C 17.710938 13.527344 17.863281 13.570312 18.027344 13.574219 C 18.09375 13.574219 18.160156 13.59375 18.222656 13.609375 C 18.230469 13.613281 18.234375 13.652344 18.226562 13.664062 C 18.152344 13.738281 18.109375 13.84375 18 13.886719 C 17.933594 13.90625 17.871094 13.953125 17.804688 13.953125 C 16.933594 13.957031 16.0625 13.957031 15.191406 13.953125 C 15.097656 13.953125 15.003906 13.910156 14.90625 13.886719 C 14.890625 13.882812 14.863281 13.875 14.847656 13.878906 C 14.65625 13.972656 14.453125 13.957031 14.253906 13.957031 C 13.777344 13.957031 13.304688 13.957031 12.832031 13.957031 C 12.660156 13.957031 12.542969 13.863281 12.5 13.699219 L 12.5 13.609375 C 12.523438 13.550781 12.53125 13.484375 12.566406 13.4375 C 12.675781 13.308594 12.796875 13.1875 12.914062 13.0625 C 12.976562 12.996094 13.046875 12.9375 13.113281 12.871094 C 13.109375 12.867188 13.105469 12.859375 13.097656 12.855469 C 13.035156 12.851562 12.972656 12.847656 12.894531 12.839844 C 12.851562 12.882812 12.824219 12.980469 12.714844 12.980469 C 12.609375 12.984375 12.542969 12.941406 12.5 12.851562 L 12.5 12.730469 C 12.585938 12.613281 12.707031 12.636719 12.800781 12.644531 C 12.847656 12.597656 12.882812 12.566406 12.914062 12.53125 C 12.921875 12.527344 12.921875 12.515625 12.921875 12.503906 Z M 13.109375 12.503906 "/><path style=" stroke:none;fill-rule:nonzero;fill:#ffffff;fill-opacity:1;" d="M 17.160156 14.03125 C 17.285156 14.03125 17.355469 14.089844 17.355469 14.191406 C 17.355469 14.308594 17.285156 14.375 17.167969 14.375 C 17.039062 14.375 16.96875 14.316406 16.96875 14.199219 C 16.96875 14.089844 17.035156 14.03125 17.160156 14.03125 "/><path style=" stroke:none;fill-rule:nonzero;fill:#ffffff;fill-opacity:1;" d="M 13.707031 14.03125 C 13.832031 14.03125 13.902344 14.089844 13.902344 14.191406 C 13.902344 14.308594 13.832031 14.375 13.714844 14.375 C 13.585938 14.375 13.515625 14.316406 13.515625 14.199219 C 13.515625 14.089844 13.585938 14.03125 13.707031 14.03125 "/><path style=" stroke:none;fill-rule:nonzero;fill:#ffffff;fill-opacity:1;" d="M 14.1875 14.03125 C 14.3125 14.03125 14.382812 14.089844 14.382812 14.191406 C 14.382812 14.308594 14.3125 14.375 14.195312 14.375 C 14.066406 14.375 13.996094 14.316406 13.996094 14.199219 C 13.996094 14.089844 14.0625 14.03125 14.1875 14.03125 "/><path style=" stroke:none;fill-rule:nonzero;fill:#ffffff;fill-opacity:1;" d="M 13.898438 16.890625 C 13.945312 16.851562 13.996094 16.816406 14.046875 16.777344 C 14.246094 16.625 14.476562 16.554688 14.726562 16.539062 C 15.109375 16.519531 15.484375 16.578125 15.855469 16.675781 C 16.125 16.742188 16.40625 16.734375 16.6875 16.726562 C 17.242188 16.714844 17.753906 16.53125 18.25 16.300781 C 18.222656 16.34375 18.207031 16.394531 18.175781 16.433594 C 17.851562 16.835938 17.429688 17.054688 16.914062 17.097656 C 16.488281 17.132812 16.070312 17.054688 15.65625 16.960938 C 15.273438 16.871094 14.890625 16.792969 14.492188 16.824219 C 14.292969 16.839844 14.097656 16.878906 13.898438 16.910156 Z M 13.898438 16.890625 "/><g clip-rule="nonzero" clip-path="url(#7158aa19c7)"><path style=" stroke:none;fill-rule:nonzero;fill:#ffffff;fill-opacity:1;" d="M 16.503906 16.53125 C 16.125 16.53125 15.808594 16.210938 15.808594 15.816406 C 15.808594 15.414062 16.117188 15.082031 16.488281 15.082031 C 16.878906 15.082031 17.1875 15.402344 17.1875 15.804688 C 17.1875 16.210938 16.886719 16.527344 16.503906 16.53125 "/></g><path style=" stroke:none;fill-rule:nonzero;fill:#ffffff;fill-opacity:1;" d="M 16.648438 16.515625 C 16.277344 16.597656 15.902344 16.351562 15.816406 15.964844 C 15.730469 15.574219 15.964844 15.179688 16.328125 15.101562 C 16.332031 15.101562 16.347656 15.09375 16.347656 15.097656 C 15.558594 15.925781 16.453125 16.554688 16.648438 16.515625 "/><path style=" stroke:none;fill-rule:nonzero;fill:#ffffff;fill-opacity:1;" d="M 19.339844 12.789062 L 20.65625 12.789062 L 20.65625 22.578125 L 19.339844 22.578125 Z M 19.339844 12.789062 "/><path style=" stroke:none;fill-rule:nonzero;fill:#ffffff;fill-opacity:1;" d="M 18.265625 22.550781 L 20.636719 22.550781 L 20.636719 23.128906 L 18.265625 23.128906 Z M 18.265625 22.550781 "/><path style=" stroke:none;fill-rule:nonzero;fill:#ffffff;fill-opacity:1;" d="M 9.46875 12.789062 L 11.046875 12.789062 L 11.046875 23.089844 L 9.46875 23.089844 Z M 9.46875 12.789062 "/><path style=" stroke:none;fill-rule:nonzero;fill:#ffffff;fill-opacity:1;" d="M 11.050781 22.550781 L 12.210938 22.550781 L 12.210938 23.089844 L 11.050781 23.089844 Z M 11.050781 22.550781 "/><path style=" stroke:none;fill-rule:nonzero;fill:#ffffff;fill-opacity:1;" d="M 12.136719 16.101562 C 12.175781 16.070312 12.214844 16.039062 12.25 16.011719 C 12.410156 15.886719 12.585938 15.832031 12.777344 15.820312 C 13.074219 15.800781 13.359375 15.851562 13.648438 15.929688 C 13.859375 15.984375 14.074219 15.976562 14.289062 15.96875 C 14.71875 15.960938 15.109375 15.8125 15.496094 15.628906 C 15.476562 15.664062 15.460938 15.699219 15.4375 15.730469 C 15.1875 16.058594 14.863281 16.230469 14.464844 16.269531 C 14.132812 16.296875 13.816406 16.230469 13.496094 16.15625 C 13.199219 16.085938 12.902344 16.023438 12.597656 16.046875 C 12.441406 16.058594 12.289062 16.09375 12.136719 16.113281 Z M 12.136719 16.101562 "/><g clip-rule="nonzero" clip-path="url(#470f4b3f42)"><path style=" stroke:none;fill-rule:nonzero;fill:#ffffff;fill-opacity:1;" d="M 14.144531 15.816406 C 13.855469 15.816406 13.609375 15.558594 13.609375 15.238281 C 13.609375 14.917969 13.847656 14.648438 14.136719 14.648438 C 14.4375 14.648438 14.675781 14.90625 14.675781 15.230469 C 14.679688 15.554688 14.441406 15.8125 14.144531 15.816406 "/></g><path style=" stroke:none;fill-rule:nonzero;fill:#ffffff;fill-opacity:1;" d="M 14.257812 15.800781 C 13.972656 15.867188 13.6875 15.667969 13.621094 15.359375 C 13.550781 15.042969 13.734375 14.726562 14.015625 14.664062 C 14.019531 14.664062 14.03125 14.65625 14.027344 14.660156 C 13.421875 15.324219 14.113281 15.832031 14.257812 15.800781 "/></g></svg>